<svg width="88" height="81" viewBox="0 0 88 81" fill="none" xmlns="http://www.w3.org/2000/svg">
<g clip-path="url(#clip0_18_2326)">
<path d="M41.4174 80.0467C39.159 80.0467 37.2647 79.7016 36.0959 79.1099C31.0518 77.7958 27.0675 76.0873 23.5438 74.5784C17.6702 72.0613 13.0322 70.0717 6.15815 70.9494C5.20975 71.0702 4.34059 70.4021 4.21925 69.4578C4.09792 68.5135 4.76898 67.6482 5.71738 67.5274C13.5324 66.5314 18.8068 68.7897 24.9157 71.4079C28.37 72.8897 32.285 74.5686 37.1706 75.8235C37.3316 75.8654 37.4826 75.927 37.6262 76.0133C39.3249 77.0217 47.0756 77.0685 52.9542 73.3753L83.194 54.3547C83.2411 54.3251 83.2881 54.298 83.3352 54.2758C84.0929 53.8937 84.2068 53.2206 84.2068 52.8533C84.2068 52.301 83.9344 51.5762 83.1693 51.1867C81.7132 50.447 79.1899 51.2015 76.424 53.2034C76.3348 53.2675 76.2407 53.3242 76.1417 53.3686L64.959 58.5977C64.0923 59.0045 63.0597 58.6322 62.6536 57.7693C62.2475 56.9064 62.6189 55.8783 63.4856 55.474L74.5222 50.3114C79.7867 46.5566 83.1841 47.316 84.7466 48.1098C86.5568 49.0294 87.6785 50.8464 87.676 52.8557C87.676 54.7664 86.6707 56.4281 84.9868 57.3132L54.8089 76.2944C50.5448 78.9743 45.414 80.0492 41.4198 80.0492L41.4174 80.0467Z" fill="#0C2F4F"/>
<path d="M44.0962 65.8262C37.8511 65.8262 32.4207 63.42 26.2425 60.2717C25.3906 59.8378 25.0539 58.7974 25.4897 57.9493C25.9255 57.1012 26.9705 56.7659 27.8223 57.1998C38.75 62.7691 44.9901 64.3371 55.3532 59.6183C55.3854 59.6035 55.4175 59.5888 55.4522 59.5764C56.1282 59.3176 57.2376 58.7407 57.0841 57.7668C56.9924 57.1801 56.4922 56.6771 55.9722 56.6475C53.4811 56.4996 51.4877 56.4626 49.7296 56.4306C42.7912 56.3024 40.1936 56.2531 31.45 49.8011L23.9247 44.2515C23.0481 43.6031 19.7671 43.0903 16.6272 44.4166L2.74046 50.2843C1.85892 50.6566 0.841182 50.2473 0.467269 49.3696C0.0933569 48.492 0.504413 47.4787 1.38595 47.1064L15.2752 41.2387C18.4522 39.8975 23.4542 39.6066 25.9924 41.4779L33.5177 47.0275C41.3723 52.8212 43.1577 52.8557 49.799 52.979C51.5893 53.0135 53.6198 53.0505 56.1827 53.2034C58.3123 53.3291 60.1769 55.0647 60.5161 57.2392C60.8058 59.0981 59.9689 61.5266 56.7547 62.779C52.0028 64.9362 47.9021 65.8262 44.1036 65.8262H44.0962Z" fill="#0C2F4F"/>
<path d="M58.919 37.6786C56.4081 37.6786 53.8675 36.9365 51.416 35.4671C50.5964 34.9765 50.3314 33.9164 50.8242 33.0979C51.317 32.2818 52.3842 32.018 53.2039 32.5086C56.0689 34.2246 58.919 34.6609 61.6776 33.803C65.9565 32.4717 69.9433 27.955 73.2045 20.7437C73.8557 19.3039 74.3633 17.5559 74.9502 15.5343C75.8293 12.5068 76.8743 8.91469 78.833 4.86156C73.9226 6.14357 69.3836 5.95867 65.2731 5.79102C60.5088 5.59625 56.3957 5.42861 53.0627 7.68445C48.239 10.9511 43.081 16.4638 45.8965 24.1879C46.2233 25.0828 45.7578 26.0739 44.8589 26.3994C43.9576 26.7248 42.9646 26.2613 42.6377 25.3664C41.4343 22.0627 41.303 18.7985 42.2514 15.66C43.4698 11.6291 46.4511 7.9877 51.1114 4.82951C55.3904 1.93266 60.2587 2.12989 65.4117 2.34192C70.5722 2.55147 75.9085 2.76843 81.7698 0.19208C82.4606 -0.111165 83.2704 0.0638786 83.7706 0.628457C84.2708 1.19304 84.3451 2.01402 83.9588 2.65749C80.7545 7.9803 79.3827 12.7016 78.2808 16.4934C77.6567 18.6407 77.1169 20.4972 76.3641 22.1613C72.6325 30.4155 68.039 35.44 62.7101 37.0968C61.4646 37.4838 60.1943 37.6761 58.9165 37.6761L58.919 37.6786Z" fill="#0C2F4F"/>
<path d="M40.5326 44.5004H40.5128C39.8343 44.493 39.2227 44.0911 38.9478 43.4748L29.8526 23.0686C29.4638 22.1983 29.86 21.1776 30.7341 20.7906C31.6082 20.4035 32.6334 20.7979 33.0222 21.6682L40.6094 38.6919C41.7905 36.3843 43.1277 33.9953 44.3559 32.3139C51.6336 21.439 57.9926 15.9584 65.3 11.0719C66.0948 10.5419 67.172 10.7514 67.7044 11.5428C68.2393 12.3342 68.0263 13.4067 67.2314 13.9367C57.5617 20.401 52.4037 26.5054 47.2209 34.2566C47.2061 34.2763 47.1937 34.2985 47.1788 34.3182C45.8565 36.1205 44.0538 39.3847 42.1025 43.5068C41.8153 44.1108 41.2061 44.4979 40.5351 44.4979L40.5326 44.5004Z" fill="#0C2F4F"/>
</g>
<defs>
<clipPath id="clip0_18_2326">
<rect width="87.3469" height="80" fill="white" transform="translate(0.326172 0.0466309)"/>
</clipPath>
</defs>
</svg>
