<svg width="80" height="81" viewBox="0 0 80 81" fill="none" xmlns="http://www.w3.org/2000/svg">
<g clip-path="url(#clip0_18_2333)">
<path d="M79.9293 37.6301C79.8749 36.7178 79.0903 36.023 78.1781 36.0774C77.2658 36.1317 76.571 36.9163 76.6254 37.8286C76.8783 42.0305 76.4032 46.2325 75.2121 50.3115C72.4683 59.7174 66.2245 67.4903 57.6339 72.2004C49.0433 76.9104 39.1317 77.9928 29.7257 75.2467C20.3198 72.5029 12.5469 66.259 7.83687 57.6685C3.12682 49.0779 2.04443 39.1662 4.79058 29.7603C10.4601 10.3481 30.8648 -0.837346 50.2793 4.82748C51.8935 5.30014 53.4863 5.88387 55.013 6.5645C55.8473 6.9379 56.8257 6.5645 57.1991 5.72789C57.5725 4.89365 57.1991 3.91525 56.3625 3.54184C54.7011 2.79977 52.9664 2.16168 51.2057 1.64884C30.0401 -4.52409 7.79433 7.67053 1.61667 28.8362C-1.37526 39.0906 -0.195976 49.8956 4.93947 59.2613C10.0749 68.6271 18.5497 75.4334 28.8017 78.4253C32.5144 79.5077 36.2981 80.0442 40.0604 80.0442C46.6895 80.0442 53.2524 78.378 59.2268 75.1025C68.5925 69.9671 75.3988 61.4946 78.3908 51.2403C79.6882 46.7926 80.2058 42.2148 79.9293 37.6301Z" fill="#0C2F4F"/>
<path d="M45.5739 16.1524C38.7463 15.9421 31.7108 18.6646 26.7762 23.4314C22.6097 27.4561 20.3008 32.627 20.2772 37.994C20.2583 42.1511 21.6337 45.7007 22.7893 47.9482C23.2809 48.903 24.049 50.1934 24.8147 51.1883C23.3991 52.9868 22.1725 54.8562 20.0786 58.6469C19.6367 59.4457 19.9274 60.4524 20.7262 60.8944C20.9791 61.0338 21.2532 61.1 21.525 61.1C22.1064 61.1 22.6735 60.7928 22.9737 60.2445C25.3795 55.8913 26.5564 54.2346 28.284 52.162C28.2935 52.1502 28.3006 52.1384 28.31 52.1289C28.3171 52.1218 28.3242 52.1147 28.3289 52.1053C36.5697 41.3121 42.2369 37.2449 51.546 30.9821C52.3046 30.4716 52.5055 29.4436 51.995 28.6874C51.4845 27.9287 50.4565 27.7279 49.7002 28.2383C40.5779 34.3734 34.8422 38.4761 26.9535 48.4847C25.6348 46.5303 23.5645 42.6095 23.5858 38.0082C23.6118 32.2843 26.5848 28.2171 29.0757 25.8112C33.3816 21.6518 39.512 19.2767 45.4746 19.4587C47.188 19.5107 48.9629 19.6548 50.8393 19.8061C56.4096 20.2575 62.592 20.7585 69.3747 19.0167C66.2811 24.5634 64.6363 29.5027 63.2655 33.6219C62.4006 36.2215 61.6514 38.4667 60.725 40.3266C56.6294 48.5343 51.1607 53.7596 44.9145 55.4422C40.0603 56.7491 34.7665 55.8487 30.3873 52.9679C29.624 52.4669 28.5983 52.6772 28.0949 53.4405C27.5939 54.2039 27.8043 55.2296 28.5676 55.7329C33.7361 59.1314 40.006 60.1901 45.7724 58.6374C54.8498 56.1938 60.5241 48.1349 63.6839 41.806C64.7166 39.7358 65.4989 37.389 66.404 34.6689C68.0252 29.8028 70.0411 23.7481 74.4723 16.9843C74.867 16.3817 74.8268 15.5923 74.3707 15.0322C73.9146 14.4721 73.1512 14.2736 72.48 14.5383C64.6953 17.6106 57.4755 17.0245 51.104 16.5093C49.1827 16.3533 47.37 16.2068 45.5715 16.1524H45.5739Z" fill="#0C2F4F"/>
</g>
<defs>
<clipPath id="clip0_18_2333">
<rect width="80.0047" height="80" fill="white" transform="translate(-0.00195312 0.0466309)"/>
</clipPath>
</defs>
</svg>
