<svg width="126" height="22" viewBox="0 0 126 22" fill="none" xmlns="http://www.w3.org/2000/svg">
<path d="M10.7838 17.4809L16.1612 21.5214C17.0137 22.176 18.1722 21.2957 17.8443 20.2573L15.7895 13.7338L21.1013 9.82876C21.9757 9.19673 21.5385 7.77465 20.4674 7.77465H13.9534L11.833 0.957712C11.5051 -0.0806305 10.0843 -0.0806305 9.7564 0.957712L7.61419 7.77465H1.10014C0.0290425 7.77465 -0.408142 9.19673 0.466227 9.82876L5.77802 13.7338L3.72325 20.2573C3.39536 21.2957 4.5539 22.1534 5.40641 21.5214L10.7838 17.4809Z" fill="#EFB81C"/>
<path d="M62.9996 17.4804L68.377 21.5209C69.2295 22.1755 70.388 21.2952 70.0601 20.2568L68.0054 13.7333L73.3172 9.82828C74.1915 9.19624 73.7543 7.77417 72.6832 7.77417H66.1692L64.0488 0.957223C63.721 -0.0811188 62.3001 -0.0811188 61.9722 0.957223L59.83 7.77417H53.316C52.2449 7.77417 51.8077 9.19624 52.682 9.82828L57.9938 13.7333L55.9391 20.2568C55.6112 21.2952 56.7697 22.1529 57.6222 21.5209L62.9996 17.4804Z" fill="#EFB81C"/>
<path d="M36.8922 17.4804L42.2696 21.5209C43.1221 22.1755 44.2806 21.2952 43.9527 20.2568L41.8979 13.7333L47.2097 9.82828C48.0841 9.19624 47.6469 7.77417 46.5758 7.77417H40.0618L37.9414 0.957223C37.6135 -0.0811188 36.1927 -0.0811188 35.8648 0.957223L33.7226 7.77417H27.2085C26.1374 7.77417 25.7003 9.19624 26.5746 9.82828L31.8864 13.7333L29.8317 20.2568C29.5038 21.2952 30.6623 22.1529 31.5148 21.5209L36.8922 17.4804Z" fill="#EFB81C"/>
<path d="M89.108 17.4804L94.4854 21.5209C95.3379 22.1755 96.4964 21.2952 96.1685 20.2568L94.1138 13.7333L99.4256 9.82828C100.3 9.19624 99.8627 7.77417 98.7916 7.77417H92.2776L90.1572 0.957223C89.8294 -0.0811188 88.4085 -0.0811188 88.0806 0.957223L85.9384 7.77417H79.4244C78.3533 7.77417 77.9161 9.19624 78.7904 9.82828L84.1022 13.7333L82.0475 20.2568C81.7196 21.2952 82.8781 22.1529 83.7306 21.5209L89.108 17.4804Z" fill="#EFB81C"/>
<path d="M115.216 17.4804L120.594 21.5209C121.446 22.1755 122.605 21.2952 122.277 20.2568L120.222 13.7333L125.534 9.82828C126.408 9.19624 125.971 7.77417 124.9 7.77417H118.386L116.266 0.957223C115.938 -0.0811188 114.517 -0.0811188 114.189 0.957223L112.047 7.77417H105.533C104.462 7.77417 104.024 9.19624 104.899 9.82828L110.211 13.7333L108.156 20.2568C107.828 21.2952 108.987 22.1529 109.839 21.5209L115.216 17.4804Z" fill="#EFB81C"/>
</svg>
