<svg width="361" height="84" viewBox="0 0 361 84" fill="none" xmlns="http://www.w3.org/2000/svg">
<g clip-path="url(#clip0_56_439)">
<path d="M103.745 57.5C98.5051 57.5 94.9851 53.12 94.9851 41.57C94.9851 30.02 98.5051 25.64 103.745 25.64C108.985 25.64 112.505 30.02 112.505 41.57C112.505 53.12 108.985 57.5 103.745 57.5ZM103.745 28.47C100.735 28.47 98.3351 31.05 98.3351 41.57C98.3351 52.09 100.745 54.67 103.745 54.67C106.745 54.67 109.155 52.09 109.155 41.57C109.155 31.05 106.755 28.47 103.745 28.47Z" fill="white"/>
<path d="M121.815 26.07L129.805 48.91H129.895V26.07H133.245V57.07H129.635L120.015 30.1H119.925V57.07H116.575V26.07H121.815Z" fill="white"/>
<path d="M152.275 26.07V28.9H141.455V39.46H149.445V42.29H141.455V54.23H152.795V57.06H138.105V26.06H152.275V26.07Z" fill="white"/>
<path d="M160.195 30.7H155.045V26.06H170.675V30.7H165.525V57.07H160.195V30.7Z" fill="white"/>
<path d="M179.085 57.07H173.755V26.07H181.225C187.195 26.07 190.245 28.6 190.245 35.22C190.245 40.2 188.315 42.22 186.505 43.04L191.015 57.08H185.605L181.825 44.24C181.135 44.33 180.025 44.37 179.075 44.37V57.08L179.085 57.07ZM179.085 39.98H180.975C183.855 39.98 184.925 38.91 184.925 35.21C184.925 31.51 183.855 30.44 180.975 30.44H179.085V39.97V39.98Z" fill="white"/>
<path d="M194.635 57.07V26.07H208.895V30.71H199.965V38.7H206.835V43.34H199.965V52.44H209.495V57.08H194.635V57.07Z" fill="white"/>
<path d="M213.085 57.07V26.07H227.345V30.71H218.415V38.7H225.285V43.34H218.415V52.44H227.945V57.08H213.085V57.07Z" fill="white"/>
<path d="M231.455 26.07H238.755C243.735 26.07 246.995 29.42 246.995 34.57C246.995 39.72 243.735 43.07 238.755 43.07H234.805V57.07H231.455V26.07ZM234.805 40.24H238.325C241.675 40.24 243.655 38.44 243.655 34.57C243.655 30.7 241.675 28.9 238.325 28.9H234.805V40.24Z" fill="white"/>
<path d="M253.765 26.07V54.24H263.815V57.07H250.415V26.07H253.765Z" fill="white"/>
<path d="M277.235 26.07L284.065 57.07H280.715L278.865 47.88H270.965L269.115 57.07H265.765L272.595 26.07H277.235ZM271.435 45.05H278.385L274.955 28.39H274.865L271.425 45.05H271.435Z" fill="white"/>
<path d="M292.195 26.07L300.185 48.91H300.265V26.07H303.615V57.07H300.005L290.385 30.1H290.295V57.07H286.945V26.07H292.185H292.195Z" fill="white"/>
<path d="M322.525 26.07V28.9H316.165V57.07H312.815V28.9H306.455V26.07H322.515H322.525Z" fill="white"/>
<path d="M339.745 26.07V28.9H328.925V39.46H336.915V42.29H328.925V54.23H340.265V57.06H325.575V26.06H339.745V26.07Z" fill="white"/>
<path d="M343.885 26.07H349.645C356.175 26.07 360.125 29.68 360.125 41.57C360.125 53.46 356.175 57.07 349.645 57.07H343.885V26.07ZM347.235 54.24H349.035C353.935 54.24 356.765 52.18 356.765 41.57C356.765 30.96 353.935 28.9 349.035 28.9H347.235V54.24Z" fill="white"/>
<path d="M42.455 0C19.525 0 0.875 18.65 0.875 41.58C0.875 64.51 19.525 83.16 42.455 83.16C65.385 83.16 84.035 64.51 84.035 41.58C84.035 18.65 65.385 0 42.455 0ZM61.795 72.48C61.585 72.4 61.405 72.31 61.405 72.25C61.405 71.85 61.145 71.52 60.815 71.52C60.485 71.52 59.135 70.98 58.775 70.98C58.605 70.98 58.455 71.05 58.325 71.16C58.195 71.05 57.635 70.65 57.635 70.46C57.635 69.92 57.285 69.49 56.855 69.49C56.425 69.49 55.425 69.04 54.995 69.04C54.565 69.04 50.685 67.07 50.255 67.07C50.055 67.07 49.865 67.17 49.725 67.33C49.595 67.04 49.335 66.85 49.055 66.85C48.915 66.85 48.755 66.66 48.755 66.48C48.755 65.94 48.405 65.51 47.975 65.51C47.695 65.51 46.965 64.91 46.535 64.91C46.485 64.91 45.175 63.83 44.745 63.83C44.585 63.83 44.155 63.61 43.705 63.38C43.455 57.76 42.815 53.49 42.565 51.29C42.445 50.17 42.355 49.56 42.355 49.56C42.195 48.5 42.065 47.16 41.975 45.63C41.445 36.72 41.975 21.22 42.285 14.51C42.335 13.48 42.375 12.65 42.405 12.09C42.405 11.99 42.415 11.9 42.425 11.83C42.425 11.72 42.425 11.63 42.435 11.56C42.435 11.44 42.435 11.37 42.435 11.37C41.775 12.32 41.675 13.79 41.615 14.17C40.535 20.25 40.025 26.36 39.765 31.76C39.665 33.72 39.615 35.58 39.575 37.32C39.445 44.81 39.905 48.9 39.905 48.9C40.235 53.52 40.545 58 41.005 63.62C40.865 63.67 40.725 63.72 40.575 63.79C39.905 64.07 39.175 64.48 39.095 64.78C39.035 65 38.805 65.25 38.635 65.25C38.295 65.25 37.485 66.49 37.395 66.49C36.985 66.49 35.815 67.5 35.685 67.98C35.635 68.15 35.025 68.68 34.665 68.68C34.235 68.68 33.415 69.65 32.985 69.65C32.685 69.65 31.505 69.97 31.085 69.97C30.775 69.97 30.515 70.19 30.385 70.51C30.125 70.27 29.725 70.12 29.265 70.12C28.505 70.12 27.525 70.84 27.325 70.84C27.185 70.84 27.055 70.89 26.935 70.97C26.825 70.89 26.685 70.84 26.545 70.84C26.505 70.84 26.475 70.84 26.435 70.85C26.395 70.85 26.365 70.84 26.325 70.84C25.895 70.84 24.745 72.2 24.465 72.2C24.265 72.2 23.825 72.41 23.525 72.55H23.195C12.865 66.1 5.975 54.64 5.975 41.6C5.995 21.48 22.355 5.12 42.455 5.12C62.555 5.12 78.925 21.48 78.925 41.59C78.925 54.6 72.075 66.03 61.795 72.49V72.48Z" fill="white"/>
<path d="M37.355 42.18C36.035 40.04 33.835 38.06 30.195 36.91C29.825 36.79 29.445 36.69 29.055 36.59C29.055 36.59 23.635 35.32 21.415 35.51C21.415 35.51 21.455 35.53 21.525 35.56C21.825 35.69 22.465 36.12 23.765 36.8C25.985 37.94 29.255 39.81 32.225 42.16C35.245 44.55 38.085 45.95 39.065 49.1C39.085 47.97 38.775 45.41 38.485 44.59C38.215 43.79 37.845 42.98 37.355 42.19V42.18Z" fill="white"/>
<path d="M47.4351 23.38C49.4451 22.09 51.6151 21.11 53.0751 20.53C53.9351 20.19 54.5451 19.98 54.7451 19.91C54.7951 19.89 54.8151 19.89 54.8151 19.89C53.4351 19.63 49.7651 20.09 49.7651 20.09C49.5051 20.13 49.2651 20.17 49.0251 20.22C46.6751 20.72 45.1651 21.83 44.2051 23.09C43.1651 24.41 42.7551 27.57 42.7051 28.28C43.5151 26.36 45.3851 24.7 47.4251 23.39L47.4351 23.38Z" fill="white"/>
<path d="M44.6049 49.07C44.9649 48.59 45.3149 48.06 45.7249 47.54C46.1549 47.05 46.5549 46.5 47.0549 46.03C47.2949 45.78 47.5349 45.54 47.7749 45.29L48.5449 44.59C48.9149 44.24 49.3149 43.93 49.7049 43.62C49.8449 43.51 49.9849 43.4 50.1249 43.29C50.1249 43.29 50.1449 43.28 50.1449 43.27C50.1449 43.27 50.1549 43.27 50.1649 43.26C50.3449 43.12 50.5349 42.98 50.7249 42.85C51.2449 42.49 51.7749 42.14 52.3049 41.85C52.4049 41.79 52.5149 41.74 52.6149 41.68C52.6149 41.68 52.6249 41.68 52.6349 41.68C52.6549 41.68 52.6649 41.66 52.6849 41.66C52.8649 41.56 53.0449 41.46 53.2249 41.38C53.2949 41.34 53.3749 41.3 53.4449 41.26C53.8849 41.04 54.3149 40.85 54.7249 40.69C51.3449 40.93 48.6149 42.37 48.6149 42.37C48.0949 42.68 47.6149 43.01 47.1849 43.33C45.3949 44.68 44.3749 46.08 43.8249 47.37C43.6749 47.71 43.5649 48.04 43.4749 48.37C43.3949 48.66 43.3449 48.93 43.2949 49.2C43.3449 49.89 43.4049 50.5 43.4849 51.01C43.5649 50.86 43.6349 50.7 43.7149 50.54C43.9849 50.09 44.2849 49.6 44.5949 49.08L44.6049 49.07Z" fill="white"/>
<path d="M56.8951 40.21C56.7551 40.23 56.6151 40.26 56.4551 40.29C56.3151 40.32 56.1551 40.36 56.0051 40.4C55.6551 40.51 55.2751 40.66 54.8751 40.83C54.4051 41.04 53.9051 41.28 53.4051 41.57C53.1551 41.72 52.8951 41.87 52.6251 42.03C52.3651 42.19 52.1051 42.38 51.8451 42.56C51.3051 42.9 50.8051 43.34 50.2751 43.74C49.7751 44.19 49.2451 44.61 48.7751 45.1L48.0551 45.82C47.8351 46.07 47.6151 46.33 47.3951 46.58C46.9351 47.07 46.5751 47.62 46.1851 48.11C45.8151 48.62 45.5051 49.15 45.1851 49.63C44.9151 50.14 44.6551 50.62 44.4151 51.06C44.2151 51.52 44.0351 51.94 43.8751 52.32C43.8451 52.38 43.8251 52.45 43.7951 52.51C43.7551 52.65 43.7251 52.74 43.7051 52.78C44.1651 52.67 45.5151 52.3 47.2151 51.4C48.5451 50.69 50.0951 49.67 51.5951 48.19C53.1051 46.69 54.5751 44.73 55.7251 42.18C55.7251 42.18 56.6651 40.5 58.3651 40.16C58.3651 40.16 58.3251 40.16 58.2751 40.16C58.0851 40.15 57.5851 40.14 56.9151 40.23L56.8951 40.21Z" fill="white"/>
<path d="M37.0949 19.74C36.8049 19.52 36.4949 19.31 36.1349 19.1C36.1349 19.1 34.3049 18.14 32.0449 17.97C32.3149 18.08 32.6049 18.2 32.8949 18.35C32.9449 18.37 32.9949 18.4 33.0449 18.43C33.1649 18.49 33.2849 18.55 33.4049 18.62C33.4049 18.62 33.4249 18.63 33.4349 18.64C33.4349 18.64 33.4349 18.64 33.4449 18.64C33.5149 18.68 33.5849 18.71 33.6549 18.75C34.0149 18.95 34.3649 19.18 34.7149 19.42C34.8349 19.51 34.9649 19.6 35.0849 19.7C35.0849 19.7 35.0849 19.7 35.0949 19.7C35.0949 19.7 35.0949 19.7 35.1049 19.7C35.1949 19.77 35.2949 19.85 35.3849 19.92C35.6549 20.13 35.9149 20.33 36.1649 20.57L36.6849 21.04C36.8449 21.21 37.0049 21.37 37.1649 21.54C37.4949 21.86 37.7649 22.22 38.0549 22.55C38.3249 22.89 38.5649 23.25 38.8049 23.57C38.9449 23.79 39.2049 24.31 39.3849 24.61L39.5449 23.11C39.4749 22.86 39.3849 22.53 39.3349 22.42C38.9649 21.56 38.2849 20.62 37.0849 19.72L37.0949 19.74Z" fill="white"/>
<path d="M39.2049 25.7C39.0949 25.45 38.9749 25.17 38.8449 24.86C38.6849 24.56 38.5149 24.24 38.3349 23.9C38.1249 23.58 37.9149 23.23 37.6649 22.88C37.4049 22.55 37.1549 22.18 36.8549 21.85C36.7049 21.68 36.5649 21.51 36.4149 21.34L35.9349 20.86C35.6249 20.53 35.2649 20.25 34.9349 19.95C34.5749 19.68 34.2449 19.39 33.8849 19.16C33.7049 19.04 33.5349 18.92 33.3649 18.81C33.1849 18.7 33.0149 18.6 32.8449 18.5C32.5049 18.3 32.1749 18.14 31.8549 18C31.5849 17.89 31.3349 17.79 31.0949 17.71C30.9949 17.68 30.8849 17.66 30.7949 17.64C30.6949 17.62 30.5949 17.6 30.4949 17.59C30.0449 17.53 29.7149 17.53 29.5849 17.54C29.5449 17.54 29.5249 17.54 29.5249 17.54C30.6649 17.77 31.2949 18.89 31.2949 18.89C32.0649 20.6 33.0449 21.91 34.0649 22.91C35.0649 23.9 36.1049 24.59 36.9949 25.06C38.1349 25.66 39.0349 25.91 39.3449 25.98C39.3449 25.95 39.3149 25.89 39.2849 25.8C39.2649 25.76 39.2549 25.72 39.2349 25.68L39.2049 25.7Z" fill="white"/>
<path d="M99.855 20.5H97.125L99.535 6.64001H102.265L99.855 20.5Z" fill="white"/>
<path d="M111.635 20.5H108.965L106.545 11.31L104.945 20.5H102.215L104.615 6.64001H107.295L109.725 15.84L111.325 6.64001H114.045L111.635 20.5Z" fill="white"/>
<path d="M121.925 15.62L121.075 20.5H118.345L120.745 6.64001H125.195C126.405 6.69001 127.355 7.12001 128.045 7.95001C128.735 8.78001 129.025 9.85001 128.915 11.15C128.785 12.51 128.275 13.6 127.375 14.41C126.475 15.23 125.325 15.63 123.925 15.63H121.925V15.62ZM122.325 13.29L124.085 13.31C124.765 13.3 125.295 13.03 125.665 12.52C126.035 12.01 126.215 11.32 126.195 10.46C126.185 10.02 126.075 9.67001 125.885 9.41001C125.685 9.15001 125.415 9.01001 125.065 8.98001L123.075 8.96001L122.325 13.28V13.29Z" fill="white"/>
<path d="M134.445 17.66H130.755L129.545 20.5H126.575L133.185 6.64001H135.685L137.505 20.5H134.675L134.435 17.66H134.445ZM131.765 15.33H134.255L133.865 10.42L131.765 15.33Z" fill="white"/>
<path d="M143.905 15.43H142.515L141.635 20.5H138.905L141.305 6.64001H145.495C146.735 6.69001 147.685 7.07001 148.345 7.79001C149.005 8.51001 149.285 9.50001 149.185 10.75C149.025 12.65 148.165 13.97 146.595 14.71L147.985 20.35V20.5H145.055L143.915 15.43H143.905ZM142.915 13.1L144.355 13.12C145.015 13.11 145.535 12.84 145.915 12.33C146.295 11.82 146.485 11.14 146.475 10.3C146.445 9.47002 146.085 9.03001 145.375 8.98001H143.635L142.915 13.1Z" fill="white"/>
<path d="M159.705 8.97002H156.385L154.385 20.5H151.645L153.645 8.97002H150.365L150.775 6.64001H160.115L159.705 8.97002Z" fill="white"/>
<path d="M168.775 20.5H166.105L163.685 11.31L162.085 20.5H159.355L161.755 6.64001H164.435L166.865 15.84L168.465 6.64001H171.185L168.775 20.5Z" fill="white"/>
<path d="M179.025 14.5H174.795L174.155 18.18H179.165L178.755 20.5H171.025L173.425 6.64001H181.145L180.735 8.97002H175.755L175.185 12.25H179.425L179.025 14.51V14.5Z" fill="white"/>
<path d="M185.415 15.43H184.025L183.145 20.5H180.415L182.815 6.64001H187.005C188.245 6.69001 189.195 7.07001 189.855 7.79001C190.515 8.51001 190.795 9.50001 190.695 10.75C190.535 12.65 189.675 13.97 188.105 14.71L189.495 20.35V20.5H186.565L185.425 15.43H185.415ZM184.425 13.1L185.865 13.12C186.525 13.11 187.045 12.84 187.425 12.33C187.805 11.82 187.995 11.14 187.985 10.3C187.955 9.47002 187.595 9.03001 186.895 8.98001H185.155L184.435 13.1H184.425Z" fill="white"/>
<path d="M197.365 16.78C197.425 16.31 197.365 15.92 197.155 15.6C196.955 15.29 196.535 14.98 195.905 14.68C195.275 14.38 194.745 14.07 194.325 13.74C193.165 12.86 192.625 11.74 192.725 10.4C192.785 9.63002 193.025 8.94002 193.455 8.33002C193.885 7.72002 194.455 7.25002 195.175 6.92002C195.895 6.58002 196.655 6.42002 197.475 6.44002C198.665 6.47002 199.595 6.88002 200.265 7.67002C200.935 8.47002 201.245 9.49002 201.195 10.73H198.475C198.545 9.42002 198.125 8.76002 197.225 8.74002C196.765 8.73002 196.365 8.88002 196.025 9.19002C195.695 9.50002 195.485 9.91002 195.425 10.4C195.335 11.14 195.845 11.78 196.965 12.3C198.085 12.83 198.895 13.42 199.385 14.08C199.935 14.81 200.165 15.7 200.085 16.75C199.985 17.96 199.515 18.92 198.655 19.64C197.795 20.36 196.725 20.71 195.445 20.68C194.155 20.65 193.135 20.22 192.385 19.37C191.635 18.52 191.295 17.43 191.355 16.1H194.095C194.045 16.93 194.155 17.51 194.415 17.87C194.675 18.22 195.095 18.4 195.655 18.4C196.155 18.4 196.545 18.24 196.825 17.94C197.115 17.64 197.285 17.25 197.355 16.77L197.365 16.78Z" fill="white"/>
<path d="M210.735 20.5H208.015L209.045 14.57H205.055L204.025 20.5H201.295L203.695 6.64001H206.425L205.455 12.25H209.445L210.425 6.64001H213.145L210.735 20.5Z" fill="white"/>
<path d="M215.835 20.5H213.105L215.515 6.64001H218.245L215.835 20.5Z" fill="white"/>
<path d="M221.785 15.62L220.935 20.5H218.205L220.605 6.64001H225.055C226.265 6.69001 227.215 7.12001 227.905 7.95001C228.595 8.78001 228.885 9.85001 228.775 11.15C228.645 12.51 228.135 13.6 227.235 14.41C226.335 15.23 225.185 15.63 223.785 15.63H221.785V15.62ZM222.175 13.29L223.935 13.31C224.615 13.3 225.145 13.03 225.515 12.52C225.885 12.01 226.065 11.32 226.045 10.46C226.035 10.02 225.925 9.67001 225.735 9.41001C225.535 9.15001 225.265 9.01001 224.915 8.98001L222.925 8.96001L222.175 13.28V13.29Z" fill="white"/>
<path d="M243.135 15.31L245.765 6.64001H248.505L243.955 20.5H241.215L240.925 12.37L238.105 20.5H235.355L235.115 6.64001H237.795L237.695 15.29L240.615 6.64001H242.915L243.125 15.31H243.135Z" fill="white"/>
<path d="M250.625 20.5H247.895L250.305 6.64001H253.035L250.625 20.5Z" fill="white"/>
<path d="M263.705 8.97002H260.385L258.385 20.5H255.645L257.645 8.97002H254.365L254.775 6.64001H264.115L263.705 8.97002Z" fill="white"/>
<path d="M272.795 20.5H270.075L271.105 14.57H267.115L266.085 20.5H263.355L265.755 6.64001H268.485L267.515 12.25H271.505L272.485 6.64001H275.205L272.795 20.5Z" fill="white"/>
</g>
<defs>
<clipPath id="clip0_56_439">
<rect width="359.25" height="83.17" fill="white" transform="translate(0.875)"/>
</clipPath>
</defs>
</svg>
