<svg width="82" height="81" viewBox="0 0 82 81" fill="none" xmlns="http://www.w3.org/2000/svg">
<g clip-path="url(#clip0_18_2349)">
<path d="M19.673 37.6114C30.0292 37.6114 38.4554 29.1852 38.4554 18.829C38.4554 8.4728 30.0292 0.0466309 19.673 0.0466309C9.31679 0.0466309 0.890625 8.4728 0.890625 18.829C0.890625 29.1852 9.31679 37.6114 19.673 37.6114ZM19.673 3.06908C28.3626 3.06908 35.4329 10.1395 35.4329 18.829C35.4329 27.5186 28.3626 34.5889 19.673 34.5889C10.9835 34.5889 3.91308 27.5186 3.91308 18.829C3.91308 10.1395 10.9835 3.06908 19.673 3.06908Z" fill="#0C2F4F"/>
<path d="M11.7243 26.7781C12.02 27.0739 12.4065 27.2207 12.7929 27.2207C13.1794 27.2207 13.5658 27.0739 13.8616 26.7781L19.6733 20.9664L25.4851 26.7781C25.7808 27.0739 26.1673 27.2207 26.5537 27.2207C26.9402 27.2207 27.3266 27.0739 27.6224 26.7781C28.2117 26.1887 28.2117 25.2302 27.6224 24.6408L21.8106 18.8291L27.6224 13.0173C28.2117 12.4279 28.2117 11.4694 27.6224 10.88C27.033 10.2906 26.0744 10.2906 25.4851 10.88L19.6733 16.6918L13.8616 10.88C13.2722 10.2906 12.3136 10.2906 11.7243 10.88C11.1349 11.4694 11.1349 12.4279 11.7243 13.0173L17.536 18.8291L11.7243 24.6408C11.1349 25.2302 11.1349 26.1887 11.7243 26.7781Z" fill="#0C2F4F"/>
<path d="M80.2148 8.01949L75.2947 3.09937C74.5606 2.36535 73.5157 2.05663 72.5032 2.27468C71.4885 2.49272 70.6617 3.20084 70.2925 4.17019L68.9345 7.73452C68.723 8.29152 68.8568 8.91975 69.2778 9.34074L70.558 10.621L62.27 18.909L56.8339 13.4729C55.8711 12.51 54.5887 11.9789 53.2264 11.9789C51.8642 11.9789 50.5818 12.51 49.6189 13.4729C48.6561 14.4357 48.125 15.7181 48.125 17.0804C48.125 18.2289 48.5028 19.3191 49.2001 20.2108L19.865 49.5415C17.1578 52.2488 16.3655 56.1521 17.4795 59.5631L13.4618 63.5808C13.1789 63.8636 13.0192 64.2479 13.0192 64.6495C13.0192 65.051 13.1789 65.4353 13.4618 65.7181L14.4592 66.7155L3.70571 77.469C3.11633 78.0584 3.11633 79.0169 3.70571 79.6063C4.00147 79.9021 4.38792 80.0489 4.77436 80.0489C5.1608 80.0489 5.54724 79.9021 5.84301 79.6063L16.5965 68.8528L17.596 69.8502C17.8918 70.146 18.2782 70.2928 18.6647 70.2928C19.0511 70.2928 19.4376 70.146 19.7333 69.8502L23.7467 65.8369C24.7247 66.1585 25.7588 66.3269 26.8188 66.3269C29.4462 66.3269 31.916 65.3036 33.7726 63.447L41.4972 55.7224L48.533 48.6866L55.5688 41.6508L63.0947 34.1248C63.9864 34.82 65.0766 35.2 66.2273 35.2C67.5896 35.2 68.8719 34.6689 69.8348 33.706C70.7977 32.7432 71.3288 31.4608 71.3288 30.0985C71.3288 28.7362 70.7977 27.4539 69.8348 26.491L64.3987 21.0549L72.6867 12.7669L73.9669 14.0471C74.2562 14.3364 74.6427 14.4897 75.0356 14.4897C75.2169 14.4897 75.3983 14.4573 75.5731 14.3904L79.1375 13.0324C80.1068 12.6633 80.8149 11.8364 81.033 10.8217C81.2489 9.80706 80.9423 8.76215 80.2083 8.03029L80.2148 8.01949ZM18.6647 66.6443L17.6673 65.6469L16.6699 64.6495L18.941 62.3783C19.2195 62.7518 19.5282 63.1102 19.8672 63.4491C20.2061 63.7881 20.5624 64.0946 20.938 64.3753L18.6668 66.6464L18.6647 66.6443ZM31.6353 61.3097C28.9799 63.9651 24.6578 63.9651 22.0023 61.3097C19.3469 58.6542 19.3469 54.3321 22.0023 51.6767L51.3029 22.3783L60.9358 32.0113L54.5067 38.4405L50.9121 34.8459C50.3227 34.2565 49.3642 34.2565 48.7748 34.8459C48.1854 35.4353 48.1854 36.3938 48.7748 36.9832L52.3693 40.5778L47.4687 45.4785L43.8741 41.8839C43.2847 41.2945 42.3262 41.2945 41.7368 41.8839C41.1474 42.4733 41.1474 43.4318 41.7368 44.0212L45.3314 47.6158L40.4307 52.5165L36.8361 48.9219C36.2467 48.3325 35.2882 48.3325 34.6988 48.9219C34.1094 49.5113 34.1094 50.4698 34.6988 51.0592L38.2934 54.6538L31.6353 61.3118V61.3097ZM67.704 31.5622C67.2981 31.9681 66.7649 32.171 66.2338 32.171C65.7027 32.171 65.1694 31.9681 64.7636 31.5622L51.7541 18.5527C50.9423 17.741 50.9423 16.4219 51.7541 15.6102C52.1599 15.2043 52.6932 15.0014 53.2243 15.0014C53.7554 15.0014 54.2886 15.2043 54.6945 15.6102L67.704 28.6197C68.5157 29.4314 68.5157 30.7505 67.704 31.5622ZM78.0688 10.1978L75.4199 11.2082L73.764 9.55231L72.1081 7.89644L73.1228 5.23668C73.1228 5.23668 73.1444 5.22804 73.1595 5.23668L78.0883 10.1654C78.0883 10.1654 78.0883 10.1892 78.071 10.1978H78.0688Z" fill="#0C2F4F"/>
</g>
<defs>
<clipPath id="clip0_18_2349">
<rect width="80.218" height="80" fill="white" transform="translate(0.890625 0.0466309)"/>
</clipPath>
</defs>
</svg>
