<svg xmlns="http://www.w3.org/2000/svg" width="222.141" height="222.732" viewBox="0 0 222.141 222.732">
  <g id="TP_Guarantee_Badge_180" transform="translate(-8256 -6998.4)">
    <g id="TP_Guarantee_Badge_180-2" data-name="TP_Guarantee_Badge_180" transform="translate(8256 6998.4)">
      <path id="Path_134" data-name="Path 134" d="M494.845,270.09a42.4,42.4,0,0,0-4.295-2.629l-1.444-.815c-1.592-.777-2.777-1.444-3.591-1.888a6.25,6.25,0,0,1-1.7-1.407,2.762,2.762,0,0,1-.555-1.7,3.049,3.049,0,0,1,.777-2.036,3.215,3.215,0,0,1,2.221-.74,4.3,4.3,0,0,1,2.851,1.037,3.22,3.22,0,0,1,1.037,2.444v.852a.524.524,0,0,0,.592.592h6.96a.506.506,0,0,0,.407-.148.586.586,0,0,0,.185-.444v-.963a9.666,9.666,0,0,0-1.555-5.442,9.843,9.843,0,0,0-4.184-3.665,13.592,13.592,0,0,0-6.109-1.333,13.152,13.152,0,0,0-5.924,1.259,9.214,9.214,0,0,0-4.036,3.443,9.364,9.364,0,0,0-1.444,5.22,9.1,9.1,0,0,0,1.407,5.109,12.337,12.337,0,0,0,3.443,3.48c1.333.852,2.925,1.74,4.813,2.7,1.629.815,2.777,1.444,3.443,1.777a4.926,4.926,0,0,1,1.555,1.259,2.239,2.239,0,0,1,.592,1.592,2.847,2.847,0,0,1-.777,1.925,3.168,3.168,0,0,1-2.332.777,4.423,4.423,0,0,1-2.925-.963,3.089,3.089,0,0,1-1.111-2.407v-.889a.53.53,0,0,0-.185-.407.434.434,0,0,0-.407-.185h-6.96a.613.613,0,0,0-.444.185.506.506,0,0,0-.148.407v1.3a9.129,9.129,0,0,0,5.591,8.775,14.97,14.97,0,0,0,6.257,1.259,12.664,12.664,0,0,0,8.478-2.7,9.2,9.2,0,0,0,3.221-7.4c0-3.11-.37-3.147-1.111-4.332a9.56,9.56,0,0,0-2.629-2.925Z" transform="translate(-299.139 -158.575)"/>
      <path id="Path_135" data-name="Path 135" d="M428.413,252.9H420.86a.575.575,0,0,0-.629.481l-4,11.81a.136.136,0,0,1-.148.148c-.074,0-.111-.037-.148-.148l-4-11.81a.6.6,0,0,0-.629-.481h-7.627c-.333,0-.481.148-.481.407s0,.222.037.3l8.626,21.14v.3c.037,0,.037,12,.037,12a.524.524,0,0,0,.592.592h7.071a.506.506,0,0,0,.407-.148.586.586,0,0,0,.185-.444V274.744c.037,0,8.7-21.14,8.7-21.14a.543.543,0,0,0,0-.481c-.074-.148-.222-.185-.444-.185Z" transform="translate(-253.922 -159.268)"/>
      <path id="Path_136" data-name="Path 136" d="M351.576,253.481a.653.653,0,0,0-.7-.481h-8.7a.653.653,0,0,0-.7.481l-8.923,33.691c-.111.444.074.629.481.629h7.331a.565.565,0,0,0,.629-.555l1-4.369c0-.148.111-.185.259-.185h8.4a.247.247,0,0,1,.259.185l1,4.369a.606.606,0,0,0,.629.555h7.4q.555,0,.555-.444v-.185c-.037,0-8.96-33.691-8.96-33.691Zm-2.3,22.769a1.6,1.6,0,0,0-.185.037h-5.331c-.185,0-.3-.074-.259-.259l2.74-12.4c0-.148.074-.185.148-.185s.111.074.148.185l2.777,12.329a.549.549,0,0,1-.037.259Z" transform="translate(-209.406 -159.331)"/>
      <path id="Path_137" data-name="Path 137" d="M283.919,254.2a14.245,14.245,0,0,0-6.22-1.3H266.592a.769.769,0,0,0-.444.185.506.506,0,0,0-.148.407v33.654a.647.647,0,0,0,.148.444.712.712,0,0,0,.444.148H277.7a14.245,14.245,0,0,0,6.22-1.3,9.692,9.692,0,0,0,4.147-3.628,9.832,9.832,0,0,0,1.481-5.442V263.23a9.918,9.918,0,0,0-1.481-5.442,9.482,9.482,0,0,0-4.147-3.628Zm-2.629,22.214a4.464,4.464,0,0,1-1.037,3.073,2.983,2.983,0,0,1-2.444,1.148h-3.3c-.185.037-.259,0-.259-.185V260.231a.234.234,0,0,1,.259-.259h3.221a3.129,3.129,0,0,1,2.555,1.185,4.479,4.479,0,0,1,1,3.036V276.41Z" transform="translate(-167.518 -159.268)"/>
      <path id="Path_138" data-name="Path 138" d="M179.655,251.6a11.212,11.212,0,0,0-8.219,3.036,10.747,10.747,0,0,0-3.036,8.071v13.625a10.92,10.92,0,0,0,3.036,8.145,12.694,12.694,0,0,0,16.475,0,10.857,10.857,0,0,0,3.073-8.145V262.707a10.826,10.826,0,0,0-3.073-8.071,11.242,11.242,0,0,0-8.256-3.036Zm3.073,25.176a4.143,4.143,0,0,1-.852,2.7,2.777,2.777,0,0,1-2.221.963,2.643,2.643,0,0,1-2.184-.963,4.274,4.274,0,0,1-.815-2.7V262.337a3.855,3.855,0,0,1,.815-2.629,2.927,2.927,0,0,1,4.406,0,3.867,3.867,0,0,1,.852,2.629Z" transform="translate(-106.053 -158.449)"/>
      <path id="Path_139" data-name="Path 139" d="M119.671,268.412q-.222-.167,0-.333a6.948,6.948,0,0,0,2.184-2.555,9.2,9.2,0,0,0,1.037-4.48,10.583,10.583,0,0,0-1.555-5.442,8.966,8.966,0,0,0-3.776-3.443,12.309,12.309,0,0,0-5.591-1.259,12.107,12.107,0,0,0-5.628,1.259,9.047,9.047,0,0,0-3.776,3.48,9.416,9.416,0,0,0-1.481,5.368,8.137,8.137,0,0,0,.963,4.369,7.535,7.535,0,0,0,2.184,2.74q.222.222,0,.333a6.16,6.16,0,0,0-2.3,2.74,11.171,11.171,0,0,0-1.037,4.924,10.737,10.737,0,0,0,.963,4.739,9.337,9.337,0,0,0,4,4.443,12.312,12.312,0,0,0,6.22,1.555,11.742,11.742,0,0,0,6.183-1.592,10.287,10.287,0,0,0,3.887-4.369,12.27,12.27,0,0,0-.074-9.7,6.631,6.631,0,0,0-2.332-2.777Zm-10.107-8.441a2.645,2.645,0,0,1,.889-1.407,2.455,2.455,0,0,1,3.11,0,2.551,2.551,0,0,1,.963,1.407,4.822,4.822,0,0,1,.3,1.7,5.249,5.249,0,0,1-.333,1.925,2.712,2.712,0,0,1-.963,1.333,2.367,2.367,0,0,1-1.481.481,2.5,2.5,0,0,1-1.481-.444,2.832,2.832,0,0,1-.889-1.333,5.38,5.38,0,0,1-.333-2,4.531,4.531,0,0,1,.3-1.7Zm4.813,17.956a2.754,2.754,0,0,1-.963,1.407,2.2,2.2,0,0,1-1.444.481,2.447,2.447,0,0,1-2.407-1.925,6.7,6.7,0,0,1-.407-2.332,6.382,6.382,0,0,1,.333-2.221,2.551,2.551,0,0,1,.852-1.481,2.384,2.384,0,0,1,1.592-.555,2.471,2.471,0,0,1,2.481,2,8.2,8.2,0,0,1,.333,2.3A6.466,6.466,0,0,1,114.3,278Z" transform="translate(-63.543 -158.008)"/>
      <path id="Path_140" data-name="Path 140" d="M69.121,252.9H61.865a1.658,1.658,0,0,0-.74.148l-4.48,1.74a.726.726,0,0,0-.444.7l.111,5.22c0,.37.148.555.481.555h.148l4.295-.629c.185-.074.259,0,.259.185v26.324a.646.646,0,0,0,.148.444.711.711,0,0,0,.444.148h7.071a.557.557,0,0,0,.407-.148.586.586,0,0,0,.185-.444V253.492a.6.6,0,0,0-.185-.407.434.434,0,0,0-.407-.185Z" transform="translate(-35.393 -159.268)"/>
      <path id="Path_141" data-name="Path 141" d="M222.141,136.8V78.86h-8.663l.926-7.775L201,59.645l-3.11-17.438-16.179-6.96L173.64,19.511,156.165,17.66,143.836,5,126.583,8.441,111.07,0,95.594,8.4,78.342,4.961,66.013,17.623,48.538,19.474,40.467,35.209,24.287,42.17l-3.11,17.438-13.4,11.44L8.7,78.86H0v64.31l12.218,4.554,2.184,2.518.518,17.734,14.957,9.33,5.665,16.772,17.031,4.443L62.9,212.885l17.549-.815,14.069,10.663,16.549-6,16.549,6,14.069-10.663,17.549.815,10.33-14.365,17.031-4.443,5.665-16.772,14.957-9.33.518-17.734,1.888-2.147,12.514-4.924V136.8h0ZM2.184,81.711v-.629h8.923l-1.074-9.071L23.14,60.792l3.036-17.068,15.809-6.812,7.886-15.4,17.1-1.814L79.045,7.331,95.928,10.7,111.07,2.481,126.176,10.7l16.883-3.369L155.128,19.7l17.1,1.814,7.923,15.4,15.809,6.812,3.073,17.068,13.106,11.218-1.074,9.071h8.923v2.7H2.184V81.711Zm0,4.221H219.956v50.907H2.184Zm217.772,55.757-11.625,4.554-2.74,3.147-.518,17.327-14.624,9.108-5.554,16.4-16.661,4.369-10.107,14.032-17.179-.777-13.736,10.4-16.179-5.85-16.179,5.85-13.736-10.4-17.179.777L53.832,196.594l-16.661-4.369-5.554-16.4-14.624-9.108-.518-17.327-3.036-3.517L2.11,141.652v-2.7H219.882v2.7Z"/>
      <path id="Path_142" data-name="Path 142" d="M372.526,476.785l4.406-2.073-6.405-13.81,2.629-1.222-1.629-3.48-9.626,4.554,1.629,3.443,2.592-1.222Z" transform="translate(-227.912 -287.299)"/>
      <path id="Path_143" data-name="Path 143" d="M215.045,411.171A58.087,58.087,0,0,0,264.989,382.7H165.1A58.087,58.087,0,0,0,215.045,411.171Zm-22.251-24.4,3.591,1.925,3.591-1.925-.666,4.036,2.888,2.851-4,.592-1.777,3.665-1.777-3.665-4-.592,2.888-2.851-.7-4.036Zm13.921,12.921,4.184-4.11-1-5.776,5.146,2.74,5.146-2.74-1,5.776,4.147,4.11-5.739.852-2.555,5.257-2.555-5.257-5.739-.852Zm28.767-5.665-1.777,3.665-1.777-3.665-4-.592,2.888-2.851-.7-4.036,3.591,1.925,3.591-1.925-.666,4.036,2.888,2.851-4,.592Z" transform="translate(-103.974 -241.011)"/>
      <path id="Path_144" data-name="Path 144" d="M291.7,498.2l5.035-.185.185-3.443,1.74-.074.37,3.406,4.961-.185L300.549,478.8l-7.034.259L291.7,498.2Zm5.665-15.031c.37,3.184.7,5.813,1.037,7.96l-1.666.074C296.809,489.5,297.031,486.834,297.365,483.169Z" transform="translate(-183.703 -301.532)"/>
      <path id="Path_145" data-name="Path 145" d="M259.5,484.111a5.776,5.776,0,0,0,1.037-2.851,6.23,6.23,0,0,0-.185-3.628,3.26,3.26,0,0,0-1.74-1.7,26.836,26.836,0,0,0-4.554-1.037l-3.406-.592L247.5,493.071l4.776.815,1.407-8.478c.666.111,1.037.3,1.148.555a4.946,4.946,0,0,1-.074,1.925l-1.037,6.257,4.443.777.852-4.961a15.222,15.222,0,0,0,.333-2.814,3.149,3.149,0,0,0-.407-1.222h0a3.841,3.841,0,0,0-1.74-1.3,2.819,2.819,0,0,0,2.258-.555Zm-4.554-5.813h0a1.7,1.7,0,0,1,1.074.481,1.527,1.527,0,0,1,.111,1.222l-.185,1.037c-.148.815-.333,1.3-.555,1.407a2.077,2.077,0,0,1-1.185,0l.7-4.184h0Z" transform="translate(-155.867 -298.698)"/>
      <path id="Path_146" data-name="Path 146" d="M422.276,420l-5.776,5.739,13.217,13.588,6.035-5.961-2.666-2.74-2.518,2.555-2.925-3,2.147-2.147-2.518-2.592-2.147,2.147h0L422.609,425l2.3-2.3Z" transform="translate(-262.297 -264.502)"/>
      <path id="Path_147" data-name="Path 147" d="M133.246,435.547a3.513,3.513,0,0,0,1.555.963,3.757,3.757,0,0,0,1.814,0l-.629,1.3,2.147,2.184,7.22-7.183-4-4.073-2.036,2.036.7.7-1.592,1.592a4.585,4.585,0,0,1-1.407,1.111.753.753,0,0,1-.852-.185.646.646,0,0,1-.185-.74,5.629,5.629,0,0,1,1.074-1.3l6.442-6.442a5.663,5.663,0,0,1,1.407-1.148.642.642,0,0,1,.666.185.656.656,0,0,1,.185.778,9.118,9.118,0,0,1-1.333,1.555l-1.222,1.222,3.406,3.48.592-.592a11.246,11.246,0,0,0,2.221-2.814,4.4,4.4,0,0,0,.222-2.814,6.956,6.956,0,0,0-1.851-3.184,5.726,5.726,0,0,0-3.221-1.814,3.988,3.988,0,0,0-2.777.407,19.7,19.7,0,0,0-3,2.592l-4,4a19.812,19.812,0,0,0-1.962,2.184,4.492,4.492,0,0,0-.815,1.814h0a4.545,4.545,0,0,0,.074,2.221,5.059,5.059,0,0,0,1.185,2.073Z" transform="translate(-83.079 -264.684)"/>
      <path id="Path_148" data-name="Path 148" d="M153.605,444.307c39.8,0,73.6-25.731,86.042-61.607h-1.814a90.1,90.1,0,0,1-20.992,33.432,88.852,88.852,0,0,1-126.4,0A90.1,90.1,0,0,1,69.451,382.7H67.6c12.4,35.876,46.242,61.607,86.042,61.607Z" transform="translate(-42.572 -241.011)"/>
      <path id="Path_149" data-name="Path 149" d="M410.534,455.8l-2.147-3.11-2.925,2.036-2.407-3.406,2.518-1.777-2.073-2.962-2.481,1.777-2.073-2.962,2.666-1.888-2.147-3.11-6.664,4.665h0l10.811,15.624Z" transform="translate(-247.372 -277.349)"/>
      <path id="Path_150" data-name="Path 150" d="M180.227,444.766l-4.073-2.666-6.072,9.441c-1.148,1.814-1.888,3-2.184,3.628a4.044,4.044,0,0,0-.407,2,4.226,4.226,0,0,0,.814,2.3,7.951,7.951,0,0,0,2.184,2.11,6.825,6.825,0,0,0,2.444,1.037,4.373,4.373,0,0,0,3.924-1.259,20.424,20.424,0,0,0,1.74-2.481l6.886-10.663-4.073-2.666-7.59,11.773a7.539,7.539,0,0,1-1.074,1.444.557.557,0,0,1-.7,0h0a.571.571,0,0,1-.259-.592,5.109,5.109,0,0,1,.74-1.407l7.7-12Z" transform="translate(-105.476 -278.419)"/>
      <path id="Path_151" data-name="Path 151" d="M343.069,489.012,338.552,470.5l-3.962,1,2.036,8.33-4.665-7.664-3.962.963,4.554,18.512,3.924-1h0l-2.036-8.4,4.517,7.812Z" transform="translate(-206.563 -296.305)"/>
      <path id="Path_152" data-name="Path 152" d="M213.24,484.825l4.258-18.771-6.553-2.555L201.8,480.346l4.7,1.851,1.518-3.073h0l1.629.629-1,3.3,4.628,1.814Zm-4.11-8.923c.74-1.518,1.962-3.887,3.739-7.109-.926,3.036-1.629,5.628-2.184,7.738Z" transform="translate(-127.087 -291.896)"/>
      <path id="Path_153" data-name="Path 153" d="M180.835,106.818a4.812,4.812,0,0,0-1.814-1.37,4.039,4.039,0,0,0-2.3-.259,6.568,6.568,0,0,0-2.407.963A6.168,6.168,0,0,0,172.394,108a4.484,4.484,0,0,0-.7,2.221,4.24,4.24,0,0,0,.481,2.221,38.877,38.877,0,0,0,2,3.443l1.7,2.7a33.813,33.813,0,0,0,2.258,3.332,4.812,4.812,0,0,0,1.814,1.37,4.039,4.039,0,0,0,2.3.259,6.569,6.569,0,0,0,2.407-.963,5.786,5.786,0,0,0,1.925-1.851,4.483,4.483,0,0,0,.7-2.221,4.633,4.633,0,0,0-.481-2.221,38.883,38.883,0,0,0-2-3.443l-1.7-2.7c-1.037-1.629-1.777-2.74-2.258-3.332Zm2.073,13.069a.612.612,0,0,1-.7,0,9.048,9.048,0,0,1-1.185-1.629l-4.628-7.331a4.181,4.181,0,0,1-.74-1.555.7.7,0,0,1,.3-.555.555.555,0,0,1,.666,0,4.856,4.856,0,0,1,1,1.333h0l4.554,7.22a8.753,8.753,0,0,1,1,1.814.6.6,0,0,1-.259.7Z" transform="translate(-108.121 -66.203)"/>
      <path id="Path_154" data-name="Path 154" d="M403.7,116l-1.814,2.666,3.739,2.629,1-1.444a13.306,13.306,0,0,0,1.851-3.406,3.878,3.878,0,0,0-.259-2.7,6.135,6.135,0,0,0-2.258-2.592,6.335,6.335,0,0,0-2.481-1.074,4.336,4.336,0,0,0-2.3.185,4.1,4.1,0,0,0-1.74,1.148,24.567,24.567,0,0,0-1.814,2.407l-3.073,4.48a13.815,13.815,0,0,0-1.962,3.628,3.55,3.55,0,0,0,.222,2.74,6.4,6.4,0,0,0,2.3,2.555,5.537,5.537,0,0,0,3.184,1.111,4.076,4.076,0,0,0,2.592-.777,14.4,14.4,0,0,0,2.629-3.147l.407-.592-3.739-2.629-1.333,1.925a8.989,8.989,0,0,1-1.222,1.518.615.615,0,0,1-.778-.037.644.644,0,0,1-.333-.74,6.086,6.086,0,0,1,.889-1.555l4.887-7.108a7.745,7.745,0,0,1,1.148-1.444.628.628,0,0,1,.815.074h0a.674.674,0,0,1,.333.666A4.675,4.675,0,0,1,403.7,116Z" transform="translate(-247.133 -69.272)"/>
      <path id="Path_155" data-name="Path 155" d="M336.862,78.11a10.239,10.239,0,0,0-3.11-1.074L329.31,76,325.2,94.178l5.146,1.185a11.63,11.63,0,0,0,3.628.481,2.3,2.3,0,0,0,1.555-.926,6.686,6.686,0,0,0,1-2.629l.37-1.7a5.026,5.026,0,0,0,.037-2.777,3.422,3.422,0,0,0-1.814-1.7,3.089,3.089,0,0,0,2.073-.555,3.725,3.725,0,0,0,.963-2.11h0a6.513,6.513,0,0,0,.111-3.554,3.4,3.4,0,0,0-1.444-1.814Zm-2.7,4.073a6.416,6.416,0,0,1-.629,1.925.92.92,0,0,1-.926.148,2.735,2.735,0,0,1-.444-.074l.926-4.036a4.733,4.733,0,0,1,.889.3h0a.656.656,0,0,1,.3.518A4.034,4.034,0,0,1,334.16,82.183ZM331.494,87a2.454,2.454,0,0,1,1.185.555,2.95,2.95,0,0,1-.074,1.481l-.37,1.7a2.854,2.854,0,0,1-.555,1.333,1.9,1.9,0,0,1-1.259.037l1.148-5.072h0Z" transform="translate(-204.8 -47.862)"/>
      <path id="Path_156" data-name="Path 156" d="M133.794,138.9l9.848,7.442,2-2.036-7.738-10,8.886,8.849,2.814-2.851L136.459,127.2l-4.184,4.258,5.405,6.886-3.813-2.851c-1.222-.926-2.258-1.74-3.184-2.407l-4.184,4.258h0l13.143,13.106,2.814-2.851-8.663-8.663Z" transform="translate(-79.665 -80.106)"/>
      <path id="Path_157" data-name="Path 157" d="M253.879,75.8,246.4,77.281l3.554,18.29,7.812-1.555-.74-3.665-3.3.666-.777-4.036,2.814-.555-.7-3.48-2.777.555h-.037l-.666-3.443,3-.592Z" transform="translate(-155.174 -47.736)"/>
      <path id="Path_158" data-name="Path 158" d="M427.929,141.267l5.146-5.035-3.184-3.332L416.6,145.858l3.184,3.332,5.7-5.554-4.406,6.886,3.3,3.443,5.257-9.219h.037l7.812-3.962-3-3.11Z" transform="translate(-262.36 -83.696)"/>
      <path id="Path_159" data-name="Path 159" d="M205.8,87.5l6.664,17.4,3.554-1.407-3.036-7.886,5.257,7.034,3.739-1.444-6.664-17.4-3.554,1.37h0l3,7.849-5.405-6.886Z" transform="translate(-129.606 -52.774)"/>
      <path id="Path_160" data-name="Path 160" d="M356.5,105.168l4.332,1.925,1.592-2.962,1.518.666-1.111,3.184,4.295,1.925h0L372.2,91.8l-6.035-2.7-9.589,16.105Zm7.183-4.073c.777-1.444,2.073-3.739,3.924-6.812-1.037,2.925-1.851,5.405-2.481,7.442h0Z" transform="translate(-224.511 -56.112)"/>
      <path id="Path_161" data-name="Path 161" d="M284.327,73.248c-.481,2.925-.815,5.405-1.037,7.368-.111-1.259-.592-3.7-1.37-7.294l-4.221.148,3.628,11.773.222,6.738,4.221-.148h0l-.222-6.738,2.925-12-4.184.148Z" transform="translate(-174.886 -46.036)"/>
      <path id="Path_162" data-name="Path 162" d="M215.045,142A58.041,58.041,0,0,0,165.1,170.508h99.889A58.213,58.213,0,0,0,215.045,142ZM237.3,166.4,233.7,164.51l-3.591,1.888.666-4.036-2.888-2.851,4-.592,1.777-3.665,1.777,3.665,4,.592-2.888,2.851.7,4.036Zm-19.7-13.736,5.739.852-4.184,4.11,1,5.776-5.146-2.74-5.146,2.74,1-5.776-4.147-4.11,5.739-.852,2.555-5.257,2.555,5.257Zm-23.029,6.479,1.777-3.665,1.777,3.665,4,.592-2.888,2.851.7,4.036-3.591-1.888-3.591,1.888.666-4.036-2.888-2.851,4-.592Z" transform="translate(-103.974 -89.427)"/>
      <path id="Path_163" data-name="Path 163" d="M153.642,52.6c-39.8,0-73.6,25.731-86.042,61.607h1.851A90.1,90.1,0,0,1,90.443,80.775a88.851,88.851,0,0,1,126.4,0,90.394,90.394,0,0,1,20.992,33.432h1.851C227.282,78.331,193.443,52.6,153.642,52.6Z" transform="translate(-42.572 -33.126)"/>
    </g>
    <path id="Path_164" data-name="Path 164" d="M305.929,490.6c-.37,3.665-.592,6.331-.629,8.034l1.666-.074C306.633,496.413,306.3,493.747,305.929,490.6Z" transform="translate(8063.732 6689.437)" fill="#efb81c"/>
    <path id="Path_165" data-name="Path 165" d="M266.5,485.1l-.7,4.184a3.078,3.078,0,0,0,1.185,0c.259-.111.444-.592.555-1.407l.185-1.037a1.527,1.527,0,0,0-.111-1.222,1.936,1.936,0,0,0-1.074-.481Z" transform="translate(8088.608 6692.9)" fill="#efb81c"/>
    <path id="Path_166" data-name="Path 166" d="M267.6,485.1Z" transform="translate(8087.475 6692.9)" fill="#0c2f4f"/>
    <path id="Path_167" data-name="Path 167" d="M225.439,477.8c-1.777,3.221-3.036,5.591-3.739,7.109l1.555.629c.555-2.11,1.259-4.665,2.184-7.738Z" transform="translate(8116.381 6697.498)" fill="#efb81c"/>
    <path id="Path_168" data-name="Path 168" d="M184.462,116.244h0a4.856,4.856,0,0,0-1-1.333.555.555,0,0,0-.666,0,.578.578,0,0,0-.3.555,4.614,4.614,0,0,0,.74,1.555l4.628,7.331a9.049,9.049,0,0,0,1.185,1.629.514.514,0,0,0,.7,0,.558.558,0,0,0,.259-.7,8.751,8.751,0,0,0-1-1.814Z" transform="translate(8141.068 6926.103)" fill="#efb81c"/>
    <path id="Path_169" data-name="Path 169" d="M345.814,87.5h0a4.732,4.732,0,0,0-.889-.3L344,91.236a2.734,2.734,0,0,0,.444.074.92.92,0,0,0,.926-.148A6.008,6.008,0,0,0,346,89.236a2.524,2.524,0,0,0,.111-1.222A.726.726,0,0,0,345.814,87.5Z" transform="translate(8039.36 6943.484)" fill="#ba872c"/>
    <path id="Path_170" data-name="Path 170" d="M340.248,105.7h0l-1.148,5.109a1.87,1.87,0,0,0,1.259-.037q.333-.222.555-1.333l.37-1.7c.185-.777.222-1.259.074-1.481a2.013,2.013,0,0,0-1.185-.555Z" transform="translate(8042.446 6931.833)" fill="#ba872c"/>
    <path id="Path_171" data-name="Path 171" d="M377.344,110.542h0c.629-2,1.481-4.517,2.481-7.442-1.851,3.073-3.184,5.331-3.924,6.812Z" transform="translate(8019.271 6933.471)" fill="#ba872c"/>
    <path id="Path_172" data-name="Path 172" d="M365.236,281.485c0-.148-.074-.185-.148-.185s-.111.074-.148.185l-2.74,12.4c0,.185.037.259.259.259h5.331a.277.277,0,0,0,.185-.037.219.219,0,0,0,.037-.259l-2.777-12.329Z" transform="translate(8027.899 6821.247)" fill="#efb81c"/>
    <path id="Path_173" data-name="Path 173" d="M291.78,272h-3.221c-.185,0-.259.074-.259.259v20.215a.234.234,0,0,0,.259.259h3.3a3.243,3.243,0,0,0,2.444-1.185,4.724,4.724,0,0,0,1.037-3.073V276.295a4.479,4.479,0,0,0-1-3.036,3.129,3.129,0,0,0-2.555-1.185Z" transform="translate(8074.438 6827.104)" fill="#efb81c"/>
    <path id="Path_174" data-name="Path 174" d="M193.7,270.8a2.723,2.723,0,0,0-2.184,1,4.053,4.053,0,0,0-.815,2.629v14.439a4.13,4.13,0,0,0,.815,2.7,2.806,2.806,0,0,0,2.184.963,2.716,2.716,0,0,0,2.221-.963,4.073,4.073,0,0,0,.852-2.7V274.428a3.867,3.867,0,0,0-.852-2.629A2.7,2.7,0,0,0,193.7,270.8Z" transform="translate(8135.904 6827.859)" fill="#efb81c"/>
    <path id="Path_175" data-name="Path 175" d="M124.6,277.06a2.584,2.584,0,0,0,1.481.444,2.528,2.528,0,0,0,1.481-.481,2.962,2.962,0,0,0,.963-1.333,4.73,4.73,0,0,0,.333-1.925,4.394,4.394,0,0,0-.3-1.7,2.551,2.551,0,0,0-.963-1.407,2.455,2.455,0,0,0-3.11,0,2.445,2.445,0,0,0-.889,1.407,5.141,5.141,0,0,0-.3,1.7,6.122,6.122,0,0,0,.333,2,2.832,2.832,0,0,0,.889,1.333Z" transform="translate(8178.35 6828.3)" fill="#efb81c"/>
    <path id="Path_176" data-name="Path 176" d="M223.672,232.1H5.9v50.907H223.672V232.1ZM38.036,274.048a.683.683,0,0,1-.185.444.506.506,0,0,1-.407.148H30.372a.59.59,0,0,1-.444-.148.711.711,0,0,1-.148-.444V247.724c0-.185-.074-.259-.259-.185l-4.295.629h-.148c-.333,0-.481-.185-.481-.555l-.111-5.22a.726.726,0,0,1,.444-.7l4.48-1.74a1.657,1.657,0,0,1,.74-.148h7.257a.6.6,0,0,1,.407.185.434.434,0,0,1,.185.407v33.654Zm24.25-4.961a9.636,9.636,0,0,1-3.887,4.369,11.561,11.561,0,0,1-6.183,1.592A12.216,12.216,0,0,1,46,273.492a9.725,9.725,0,0,1-4-4.443,11.4,11.4,0,0,1-.963-4.739,11.284,11.284,0,0,1,1.037-4.924,5.933,5.933,0,0,1,2.3-2.74q.222-.167,0-.333a7.535,7.535,0,0,1-2.184-2.74,9.613,9.613,0,0,1-.963-4.369,10.4,10.4,0,0,1,1.481-5.368,9.048,9.048,0,0,1,3.776-3.48,12.583,12.583,0,0,1,5.628-1.259,11.849,11.849,0,0,1,5.591,1.259,8.518,8.518,0,0,1,3.776,3.443,9.752,9.752,0,0,1,1.555,5.442,8.362,8.362,0,0,1-1.037,4.48,6.948,6.948,0,0,1-2.184,2.555q-.222.222,0,.333a6.631,6.631,0,0,1,2.332,2.777,12.27,12.27,0,0,1,.074,9.7Zm26.361-5.035a10.943,10.943,0,0,1-3.073,8.145,11.242,11.242,0,0,1-8.256,3.036A11.154,11.154,0,0,1,69.1,272.2a10.978,10.978,0,0,1-3.036-8.145V250.427a10.8,10.8,0,0,1,3.036-8.071,11.212,11.212,0,0,1,8.219-3.036,11.242,11.242,0,0,1,8.256,3.036,10.631,10.631,0,0,1,3.073,8.071Zm37.1.259a9.918,9.918,0,0,1-1.481,5.442,9.482,9.482,0,0,1-4.147,3.628,14.245,14.245,0,0,1-6.22,1.3H102.79a.524.524,0,0,1-.592-.592V240.43a.557.557,0,0,1,.148-.407.587.587,0,0,1,.444-.185H113.9a14.245,14.245,0,0,1,6.22,1.3,9.691,9.691,0,0,1,4.147,3.628,9.832,9.832,0,0,1,1.481,5.442V264.31Zm28.545,10.33h-7.4a.565.565,0,0,1-.629-.555l-1-4.369c0-.148-.111-.185-.259-.185h-8.4a.247.247,0,0,0-.259.185l-1,4.369a.606.606,0,0,1-.629.555h-7.331c-.444,0-.592-.222-.481-.629l8.923-33.691a.654.654,0,0,1,.7-.481h8.7a.654.654,0,0,1,.7.481l8.923,33.691v.185c.037.3-.148.444-.481.444ZM178.651,240.5l-8.663,21.14v.3c-.037,0-.037,12-.037,12a.769.769,0,0,1-.185.444.506.506,0,0,1-.407.148h-7.071a.646.646,0,0,1-.444-.148.712.712,0,0,1-.148-.444V261.645c-.037,0-8.663-21.14-8.663-21.14,0-.074-.037-.148-.037-.3,0-.259.148-.407.481-.407H161.1a.575.575,0,0,1,.629.481l4,11.81a.136.136,0,0,0,.148.148c.074,0,.111-.037.148-.148l4-11.81a.6.6,0,0,1,.629-.481h7.553a.5.5,0,0,1,.444.185.548.548,0,0,1,0,.481Zm21.288,31.84a12.792,12.792,0,0,1-8.478,2.7c-3.517,0-4.48-.407-6.257-1.259a10.084,10.084,0,0,1-4.147-3.48,9.7,9.7,0,0,1-1.444-5.294v-1.3a.506.506,0,0,1,.148-.407.683.683,0,0,1,.444-.185h6.96a.6.6,0,0,1,.407.185.434.434,0,0,1,.185.407v.889a3.144,3.144,0,0,0,1.111,2.407,4.348,4.348,0,0,0,2.925.963,2.9,2.9,0,0,0,2.332-.777,2.654,2.654,0,0,0,.777-1.925,2.068,2.068,0,0,0-.592-1.592,4.926,4.926,0,0,0-1.555-1.259q-1-.555-3.443-1.777a39.244,39.244,0,0,1-4.813-2.7,12.841,12.841,0,0,1-3.443-3.48,9.271,9.271,0,0,1-1.407-5.109,9.15,9.15,0,0,1,5.479-8.663,14.618,14.618,0,0,1,12.033.074,9.843,9.843,0,0,1,4.184,3.665,9.581,9.581,0,0,1,1.555,5.442v.963a.769.769,0,0,1-.185.444.506.506,0,0,1-.407.148h-6.96a.524.524,0,0,1-.592-.592v-.852a3.22,3.22,0,0,0-1.037-2.444,3.8,3.8,0,0,0-2.851-1.037,2.752,2.752,0,0,0-2.221.741,2.678,2.678,0,0,0-.777,2.036,2.419,2.419,0,0,0,.555,1.7,6.25,6.25,0,0,0,1.7,1.407c.777.481,2,1.111,3.591,1.888l1.444.815c1.777,1,3.221,1.888,4.295,2.629a9.515,9.515,0,0,1,2.629,2.925,8.016,8.016,0,0,1,1.111,4.332,9.2,9.2,0,0,1-3.221,7.4Z" transform="translate(8252.284 6852.231)" fill="#efb81c"/>
    <path id="Path_177" data-name="Path 177" d="M126.177,305.774a2.384,2.384,0,0,0-1.592.555,2.764,2.764,0,0,0-.852,1.481,6.1,6.1,0,0,0-.333,2.221,6.4,6.4,0,0,0,.407,2.332,2.418,2.418,0,0,0,2.407,1.925c1.185,0,1.037-.148,1.444-.481a2.822,2.822,0,0,0,.963-1.407,5.82,5.82,0,0,0,.444-2.407,7.306,7.306,0,0,0-.333-2.3,2.5,2.5,0,0,0-2.481-2Z" transform="translate(8178.287 6805.881)" fill="#efb81c"/>
    <path id="Path_178" data-name="Path 178" d="M218.5,505.537h0v0Z" transform="translate(8118.396 6680.053)" fill="#0c2f4f"/>
    <path id="Path_179" data-name="Path 179" d="M5.9,375.4v2.7l11.329,4.221,3.036,3.517.518,17.327,14.624,9.108,5.554,16.4,16.661,4.369,10.107,14.032,17.179-.778,13.736,10.4,16.179-5.85L131,456.7l13.736-10.4,17.179.778,10.107-14.032,16.661-4.369,5.554-16.4,14.624-9.108.518-17.327,2.74-3.147,11.625-4.554v-2.7H5.9Zm160.645,24.1h0l2.184-2.147,2.518,2.592-2.147,2.147,2.925,3,2.555-2.518,2.666,2.7-6,5.961-13.254-13.588,5.776-5.739,2.666,2.7-2.332,2.3,2.518,2.592ZM133.631,430.75h0l-3.962,1-4.517-18.512,3.962-.963,4.665,7.664-2.036-8.33,3.962-.963,4.517,18.512-4.147,1.037-4.517-7.812,2.073,8.4Zm5.7-17.438-1.592-3.443,9.626-4.554,1.592,3.443-2.629,1.222,6.405,13.81-4.406,2.073-6.405-13.81-2.592,1.222Zm9.811-9.182h0l6.627-4.7,2.184,3.11-2.666,1.888,2.036,2.962,2.481-1.74,2.073,2.962-2.481,1.74,2.37,3.443,2.925-2.073,2.147,3.11-6.923,4.887L149.07,404.093ZM164.73,378.1a58.043,58.043,0,0,1-99.889,0ZM124,432.6l-4.961.185-.37-3.406-1.74.074-.185,3.443-5.035.185,1.814-19.141,7.034-.259Zm-17.142-8.96h0a2.508,2.508,0,0,1,.407,1.222,20.385,20.385,0,0,1-.333,2.814l-.852,4.961-4.443-.778,1.037-6.257a4.3,4.3,0,0,0,.074-1.925c-.111-.259-.518-.444-1.148-.555L100.2,431.6l-4.776-.815,3.147-18.771,3.406.592a26.839,26.839,0,0,1,4.554,1.037,3.255,3.255,0,0,1,1.74,1.7,6.56,6.56,0,0,1,.185,3.628,5.622,5.622,0,0,1-1.037,2.851,2.819,2.819,0,0,1-2.258.555,3.422,3.422,0,0,1,1.74,1.3ZM84.612,423.6l-1.518,3.073-4.7-1.851,9.145-16.846,6.553,2.555-4.258,18.771L85.2,427.492l1-3.3-1.629-.629Zm-14.365-6.886h0a.514.514,0,0,0,.7,0,5.261,5.261,0,0,0,1.074-1.444l7.59-11.773,4.073,2.666L76.8,416.829a25.828,25.828,0,0,1-1.74,2.481,4.631,4.631,0,0,1-1.666,1.074,4.232,4.232,0,0,1-2.258.185,6.564,6.564,0,0,1-2.444-1.037,7.456,7.456,0,0,1-2.184-2.11,4.549,4.549,0,0,1-.815-2.3,4.395,4.395,0,0,1,.407-2c.3-.592,1.037-1.814,2.184-3.628l6.072-9.441,4.073,2.666-7.7,12a5.109,5.109,0,0,0-.74,1.407.5.5,0,0,0,.259.592Zm-17.66-13.736h0a4.782,4.782,0,0,1,.815-1.814c.407-.518,1.074-1.259,1.962-2.184l4-4a19.7,19.7,0,0,1,3-2.592,3.918,3.918,0,0,1,2.777-.407,5.97,5.97,0,0,1,3.221,1.814,6.48,6.48,0,0,1,1.851,3.184,3.955,3.955,0,0,1-.222,2.814,11.248,11.248,0,0,1-2.221,2.814l-.592.592-3.406-3.48,1.222-1.222a7.565,7.565,0,0,0,1.333-1.555.734.734,0,0,0-.852-.963,5.664,5.664,0,0,0-1.407,1.148l-6.442,6.442a5.631,5.631,0,0,0-1.074,1.3.6.6,0,0,0,.185.74.689.689,0,0,0,.852.185,5.071,5.071,0,0,0,1.407-1.111l1.592-1.592-.7-.7,2.036-2.036,4,4.073-7.22,7.183-2.147-2.184.629-1.3a3.027,3.027,0,0,1-1.814,0,3.512,3.512,0,0,1-1.555-.963,4.676,4.676,0,0,1-1.185-2.073,4.151,4.151,0,0,1-.074-2.221Zm62.162,36.727c-39.8,0-73.6-25.731-86.042-61.607h1.851A90.1,90.1,0,0,0,51.55,411.535a88.852,88.852,0,0,0,126.4,0A90.1,90.1,0,0,0,198.94,378.1h1.814c-12.4,35.876-46.242,61.607-86.042,61.607Z" transform="translate(8252.284 6761.986)" fill="#efb81c"/>
    <path id="Path_180" data-name="Path 180" d="M223.672,85.93V85.3h-8.923l1.074-9.071L202.717,65.012l-3.073-17.068-15.809-6.812-7.923-15.4-17.1-1.814L146.737,11.55l-16.883,3.369L114.749,6.7,99.606,14.919,82.724,11.55,70.654,23.916l-17.1,1.814-7.886,15.4L29.854,47.944,26.818,65.012,13.712,76.23,14.786,85.3H5.9V88H223.672V85.93ZM50.55,61.421h0l4.184-4.258c.926.666,1.962,1.444,3.184,2.407l3.813,2.851-5.405-6.886,4.184-4.258L73.653,64.382l-2.814,2.851-8.886-8.849,7.738,10-2,2.036-9.848-7.442,8.663,8.663L63.694,74.49,50.55,61.384Zm35.32-24.806h0l3.554-1.37,6.664,17.4L92.35,54.09l-5.257-7.034,3.036,7.923-3.554,1.37-6.664-17.4,3.554-1.37,5.368,6.886-3-7.812Zm14.92,3.369h0l2.814-.555.666,3.48-2.814.555.777,4.036,3.3-.666.7,3.665-7.775,1.555-3.591-18.29,7.479-1.481.7,3.665-3,.592.666,3.48ZM80.354,50.869a38.881,38.881,0,0,1,2,3.443,5.109,5.109,0,0,1,.481,2.221,4.141,4.141,0,0,1-.7,2.221,6.168,6.168,0,0,1-1.925,1.851,6.325,6.325,0,0,1-2.407.963,4,4,0,0,1-2.3-.259,4.461,4.461,0,0,1-1.814-1.37c-.481-.592-1.222-1.7-2.258-3.332l-1.7-2.7a38.877,38.877,0,0,1-2-3.443,4.632,4.632,0,0,1-.481-2.221,4.483,4.483,0,0,1,.7-2.221,6.168,6.168,0,0,1,1.925-1.851,6.325,6.325,0,0,1,2.407-.963,4,4,0,0,1,2.3.259,4.461,4.461,0,0,1,1.814,1.37c.481.592,1.222,1.7,2.258,3.332l1.7,2.7ZM64.841,85.264a58,58,0,0,1,99.889,0Zm49.834-35.246h0l-4.221.148-.222-6.738L106.6,31.654l4.221-.148c.777,3.628,1.222,6.035,1.37,7.294.185-2,.518-4.443,1.037-7.368l4.184-.148-2.925,12,.222,6.738Zm46.168-1.259h0a.622.622,0,0,0-.815-.037,6.436,6.436,0,0,0-1.148,1.444l-4.887,7.108a6.086,6.086,0,0,0-.889,1.555.663.663,0,0,0,.333.74.617.617,0,0,0,.777.037,6.307,6.307,0,0,0,1.222-1.518l1.333-1.925,3.739,2.629-.407.592a14.4,14.4,0,0,1-2.629,3.147,4.076,4.076,0,0,1-2.592.777A5.537,5.537,0,0,1,151.7,62.2a6.689,6.689,0,0,1-2.3-2.555,3.931,3.931,0,0,1-.222-2.74,15.035,15.035,0,0,1,1.962-3.628l3.073-4.48a24.579,24.579,0,0,1,1.814-2.407,4.471,4.471,0,0,1,1.74-1.148,4.336,4.336,0,0,1,2.3-.185,6.573,6.573,0,0,1,2.481,1.074,6.136,6.136,0,0,1,2.258,2.592,4.1,4.1,0,0,1,.259,2.7,13.306,13.306,0,0,1-1.851,3.406l-1,1.444-3.739-2.629,1.814-2.666a9.144,9.144,0,0,0,.889-1.518.674.674,0,0,0-.333-.666Zm-14.587,9.219h0l-4.295-1.888,1.111-3.184-1.518-.666L139.962,55.2l-4.332-1.925,9.589-16.105,6.035,2.7-5.072,18.1Zm-9.145-18.141h0a3.988,3.988,0,0,1-.963,2.11,3.566,3.566,0,0,1-2.073.555,3.418,3.418,0,0,1,1.814,1.7,5.4,5.4,0,0,1-.037,2.777l-.37,1.7a8.088,8.088,0,0,1-1,2.629,2.3,2.3,0,0,1-1.555.926,12.929,12.929,0,0,1-3.628-.481l-5.146-1.185,4.11-18.178,4.443,1.037a11.365,11.365,0,0,1,3.11,1.074,3.4,3.4,0,0,1,1.444,1.814,6.514,6.514,0,0,1-.111,3.554Zm33.913,25.435h0l-5.294,9.182-3.3-3.443,4.406-6.886-5.7,5.554-3.184-3.332,13.291-12.958,3.184,3.332-5.146,5.035,6.59-3.554,3,3.11-7.812,3.962Zm27.953,19.993a90.1,90.1,0,0,0-20.992-33.432,88.852,88.852,0,0,0-126.4,0A90.394,90.394,0,0,0,30.595,85.264H28.743c12.44-35.839,46.242-61.57,86.042-61.57s73.6,25.731,86.042,61.607h-1.851Z" transform="translate(8252.284 6994.181)" fill="#efb81c"/>
    <path id="Path_181" data-name="Path 181" d="M237.9,401.179l1.814,3.665,1.777-3.665,4-.592-2.888-2.851.7-4.036-3.591,1.925-3.591-1.925.7,4.036-2.925,2.851Z" transform="translate(8108.698 6750.461)" fill="#efb81c"/>
    <path id="Path_182" data-name="Path 182" d="M338.8,400.579l1.777,3.665,1.777-3.665,4.036-.592-2.925-2.851.7-4.036-3.591,1.925-3.591-1.925.7,4.036-2.888,2.851Z" transform="translate(8045.154 6750.839)" fill="#efb81c"/>
    <path id="Path_183" data-name="Path 183" d="M283.276,412.6l2.555,5.294,2.555-5.294,5.776-.815-4.184-4.11,1-5.776-5.146,2.74-5.146-2.74,1,5.776-4.184,4.11Z" transform="translate(8081.24 6745.297)" fill="#efb81c"/>
    <path id="Path_184" data-name="Path 184" d="M241.49,182.065l-1.777-3.665-1.814,3.665-4,.592,2.888,2.851-.666,4.036,3.591-1.925,3.591,1.925-.7-4.036,2.888-2.851Z" transform="translate(8108.698 6886.05)" fill="#efb81c"/>
    <path id="Path_185" data-name="Path 185" d="M342.353,181.5l-1.777-3.7-1.777,3.7-4,.555,2.888,2.851-.7,4.036,3.591-1.888,3.591,1.888-.7-4.036,2.925-2.851Z" transform="translate(8045.154 6886.428)" fill="#efb81c"/>
    <path id="Path_186" data-name="Path 186" d="M288.385,161.857,285.83,156.6l-2.555,5.257-5.776.852,4.147,4.073-.963,5.776,5.146-2.7,5.146,2.7-1-5.776,4.184-4.073Z" transform="translate(8081.24 6899.779)" fill="#efb81c"/>
  </g>
</svg>
