<svg xmlns="http://www.w3.org/2000/svg" xmlns:xlink="http://www.w3.org/1999/xlink" width="385.724" height="50" viewBox="0 0 385.724 50">
  <defs>
    <clipPath id="clip-path">
      <rect id="Rectangle_64" data-name="Rectangle 64" width="351.724" height="24" fill="#fff"/>
    </clipPath>
  </defs>
  <g id="nitric_boost_logo" data-name="nitric boost logo" transform="translate(-5185 -130)">
    <g id="Group_52" data-name="Group 52" transform="translate(5219 143)" clip-path="url(#clip-path)">
      <path id="Path_95" data-name="Path 95" d="M25.279,18.065,11.221.178H0V23.693H6.79L6.583,5.984,20.45,23.693H31.766V.178H25.088Z" fill="#fff"/>
      <path id="Path_96" data-name="Path 96" d="M46.478.178H39.417V23.693h7.061Z" fill="#fff"/>
      <path id="Path_97" data-name="Path 97" d="M79.742.178h-27.7V5.984H62.353V23.693h7.061V5.984H79.742Z" fill="#fff"/>
      <path id="Path_98" data-name="Path 98" d="M114.218,23.693v-3.72c0-2.28-.558-3.784-1.673-4.5a7.55,7.55,0,0,0-3.316-.663c-.494-.032-.876-.049-1.147-.065a11.513,11.513,0,0,0,4.5-1.261c1.323-.938,1.976-2.83,1.976-5.644a12.32,12.32,0,0,0-.606-4.237A4.905,4.905,0,0,0,110.313.582a21.108,21.108,0,0,0-4.973-.4H85.321V23.693H92.35V17.741h10.855a18.467,18.467,0,0,1,2.04.081c1.227.178,1.849,1.164,1.849,2.927v2.927h7.14Zm-7.969-12a8.986,8.986,0,0,1-2.885.291H92.334V5.935h11.285a5.574,5.574,0,0,1,3.028.534c.542.42.8,1.375.8,2.863C107.444,10.577,107.046,11.353,106.249,11.693Z" fill="#fff"/>
      <path id="Path_99" data-name="Path 99" d="M128.978.178h-7.061V23.693h7.061Z" fill="#fff"/>
      <path id="Path_100" data-name="Path 100" d="M149.571,23.854c3.7,0,6.152-.032,7.4-.065a21.9,21.9,0,0,0,4.128-.437A5.344,5.344,0,0,0,164.9,20.7a11.206,11.206,0,0,0,.765-4.8V14.83h-6.822c-.032,1.52-.478,2.474-1.37,2.862-.718.307-3.061.469-7.03.469-1.689,0-2.789-.032-3.3-.065a4.932,4.932,0,0,1-3.044-1.019c-.638-.663-.972-2.3-.972-4.9,0-1.407.031-2.426.063-3.073.144-1.892,1.02-2.992,2.646-3.315a53.833,53.833,0,0,1,5.977-.178c2.136,0,3.252,0,3.379.016,1.69.113,2.71.485,3.061,1.1a4.238,4.238,0,0,1,.35,1.65h6.742V7.569a10.011,10.011,0,0,0-.733-4.3A5.162,5.162,0,0,0,161.27.6c-1.355-.42-5.053-.615-11.125-.615q-7.2,0-9.58.906a6.184,6.184,0,0,0-3.921,4.3,25.568,25.568,0,0,0-.51,6.162,28.306,28.306,0,0,0,.813,8.1q1.171,3.469,5.69,4.059a57.061,57.061,0,0,0,6.918.307Z" fill="#fff"/>
      <path id="Path_101" data-name="Path 101" d="M212.625,12.889a8.249,8.249,0,0,0-3.825-1.051,6.552,6.552,0,0,0,3.06-1.067c.988-.825,1.5-2.264,1.5-4.318,0-2.652-.892-4.431-2.661-5.353a12.293,12.293,0,0,0-5.324-.841h-20.96V23.774h21.9a11.989,11.989,0,0,0,5.292-.825c1.769-.97,2.662-2.83,2.662-5.612,0-2.167-.558-3.639-1.642-4.431ZM191.331,5.482h11.651a8.447,8.447,0,0,1,2.152.178,1.8,1.8,0,0,1,1.243,1.925,1.773,1.773,0,0,1-.924,1.747,5.891,5.891,0,0,1-2.295.291H191.315V5.482ZM206.074,18.34a7.469,7.469,0,0,1-2.135.194H191.315v-4.27h12.432a8.736,8.736,0,0,1,2.264.178,1.885,1.885,0,0,1,1.195,2.005c0,1.051-.367,1.65-1.116,1.908Z" fill="#fff"/>
      <path id="Path_102" data-name="Path 102" d="M250.034,5c-.717-2.555-2.55-4.092-5.5-4.642A89.472,89.472,0,0,0,233.712,0c-3.219,0-5.674.081-7.363.259-3.571.372-5.818,1.779-6.711,4.221a13.652,13.652,0,0,0-.7,3.671c-.032.55-.048,1.8-.048,3.768a40.249,40.249,0,0,0,.287,5.968c.446,2.491,1.546,4.156,3.284,4.981a16.373,16.373,0,0,0,5.977,1.084c.717.032,2.773.049,6.136.049,3.889,0,6.694-.065,8.416-.21q5.81-.461,7.029-5.094a28.129,28.129,0,0,0,.542-6.534q0-2.013-.048-3.4A16.45,16.45,0,0,0,250.034,5Zm-6.647,10.221a3.052,3.052,0,0,1-1.944,2.6c-.925.307-3.475.453-7.7.453-1.562,0-2.9-.049-3.984-.113-1.9-.146-3.013-.825-3.364-2.07a17.464,17.464,0,0,1-.35-4.237,19.027,19.027,0,0,1,.159-3.105,2.991,2.991,0,0,1,1.578-2.442c.877-.372,3.188-.55,6.934-.55,2.279,0,3.57,0,3.841.016a10.312,10.312,0,0,1,3.283.469,3.088,3.088,0,0,1,1.626,2.636,26.427,26.427,0,0,1,.1,2.83,22.418,22.418,0,0,1-.16,3.526Z" fill="#fff"/>
      <path id="Path_103" data-name="Path 103" d="M286.438,5c-.717-2.555-2.55-4.092-5.5-4.642A89.463,89.463,0,0,0,270.117,0c-3.22,0-5.674.081-7.364.259-3.57.372-5.818,1.779-6.71,4.221a13.574,13.574,0,0,0-.7,3.671c-.032.55-.048,1.8-.048,3.768a40.108,40.108,0,0,0,.287,5.968c.446,2.491,1.546,4.156,3.283,4.981a16.378,16.378,0,0,0,5.977,1.084c.717.032,2.773.049,6.137.049,3.889,0,6.694-.065,8.415-.21q5.811-.461,7.029-5.094a28.128,28.128,0,0,0,.542-6.534q0-2.013-.047-3.4A16.44,16.44,0,0,0,286.438,5Zm-6.63,10.221a3.053,3.053,0,0,1-1.945,2.6c-.924.307-3.474.453-7.7.453-1.562,0-2.9-.049-3.985-.113-1.9-.146-3.012-.825-3.363-2.07a17.452,17.452,0,0,1-.351-4.237,18.876,18.876,0,0,1,.16-3.105A2.991,2.991,0,0,1,264.2,6.307c.876-.372,3.187-.55,6.933-.55,2.279,0,3.57,0,3.841.016a10.314,10.314,0,0,1,3.284.469,3.089,3.089,0,0,1,1.625,2.636,26.431,26.431,0,0,1,.1,2.83,22.6,22.6,0,0,1-.159,3.526Z" fill="#fff"/>
      <path id="Path_104" data-name="Path 104" d="M317.647,10.043a14.563,14.563,0,0,0-4.607-.7c-1.864-.065-3.028-.1-3.458-.1h-6.567a14.266,14.266,0,0,1-2.853-.178,1.808,1.808,0,0,1-1.5-1.876,1.658,1.658,0,0,1,.75-1.553,4.3,4.3,0,0,1,1.753-.4c1.5-.1,3.618-.162,6.407-.162,1.977,0,3.108.032,3.379.081a2.093,2.093,0,0,1,1.9,2.216h6.87V6.566a7.2,7.2,0,0,0-.941-4.027A5.428,5.428,0,0,0,315.3.453a57.139,57.139,0,0,0-9.085-.42c-3.364,0-5.627.049-6.759.162-2.869.275-4.813.841-5.865,1.7-1.259,1.035-1.881,2.927-1.881,5.644a9.721,9.721,0,0,0,.638,3.962,4.588,4.588,0,0,0,2.948,2.474,25.847,25.847,0,0,0,6.392.518h6.391c2.041,0,3.22.032,3.571.065,1.355.178,2.04.873,2.04,2.054a1.855,1.855,0,0,1-1.387,1.908,9.057,9.057,0,0,1-2.6.291c-3.06.065-4.782.081-5.2.065l-2.726-.081a6.851,6.851,0,0,1-1.9-.243,1.461,1.461,0,0,1-.973-.938,5.605,5.605,0,0,1-.175-1.407H291.81c0,.647-.016,1.051-.016,1.245a7.62,7.62,0,0,0,.813,3.881,4.751,4.751,0,0,0,3.235,2.054,60.057,60.057,0,0,0,9.946.5q9.947,0,12.337-1.326c1.7-.938,2.55-2.992,2.55-6.146,0-3.412-1-5.547-3.044-6.4Z" fill="#fff"/>
      <path id="Path_105" data-name="Path 105" d="M324.022.243V6.049h10.313V23.757h7.077V6.049h10.312V.243Z" fill="#fff"/>
    </g>
    <path id="Path_94" data-name="Path 94" d="M12.821,31.153l2.012-5.735L9.008,0,3.288,25.261l-.045.158,1.982,5.7L0,36.6V49.984l9.008-9.447.405.427L18,50V36.619l-5.164-5.435Zm-.8-.837L9.518,27.678V6.809L13.781,25.34,12.04,30.316ZM4.309,25.34,8.482,6.856V27.678L6.02,30.269ZM1.051,47.378V37.046l4.564-4.818,2.627,7.6Zm7.957-8.4-2.6-7.567,2.6-2.733,2.642,2.78L9.008,38.989Zm7.957,8.4L9.788,39.826l2.657-7.551,4.534,4.771V47.378Z" transform="translate(5185 130)" fill="#efb81c"/>
  </g>
</svg>
