<svg width="664" height="45" viewBox="0 0 664 45" fill="none" xmlns="http://www.w3.org/2000/svg">
<g clip-path="url(#clip0_16_2208)">
<path d="M47.723 33.7318L21.1835 0.605408H0V44.1549H12.8184L12.4272 11.358L38.6057 44.1549H59.9697V0.605408H47.3619L47.723 33.7318Z" fill="white"/>
<path d="M87.743 0.605408H74.413V44.1549H87.743V0.605408Z" fill="white"/>
<path d="M150.541 0.605408H98.2444V11.358H117.713V44.1549H131.043V11.358H150.541V0.605408Z" fill="white"/>
<path d="M215.626 44.1549V37.2661C215.626 33.0429 214.573 30.2574 212.467 28.9396C211.414 28.2806 209.337 27.8613 206.208 27.7116C205.275 27.6516 204.553 27.6217 204.041 27.5917C208.374 26.9628 211.203 26.214 212.527 25.2555C215.024 23.5183 216.258 20.014 216.258 14.8024C216.258 11.5377 215.867 8.93194 215.115 6.95513C214.001 4.10974 211.714 2.22279 208.254 1.3542C206.358 0.84502 203.229 0.605408 198.866 0.605408H161.073V44.1549H174.342V33.1328H194.834C196.669 33.1328 197.963 33.1927 198.685 33.2825C201.002 33.612 202.176 35.439 202.176 38.7038V44.125H215.656L215.626 44.1549ZM200.581 21.9309C199.709 22.2903 197.903 22.47 195.135 22.47H174.312V11.2682H195.616C198.565 11.2682 200.461 11.5976 201.333 12.2566C202.356 13.0353 202.838 14.8024 202.838 17.558C202.838 19.8642 202.086 21.3019 200.581 21.9309Z" fill="white"/>
<path d="M243.49 0.605408H230.16V44.1549H243.49V0.605408Z" fill="white"/>
<path d="M282.366 44.4545C289.347 44.4545 293.981 44.3946 296.328 44.3347C299.788 44.2149 302.376 43.9453 304.121 43.526C307.672 42.6873 310.079 41.04 311.313 38.6139C312.276 36.7569 312.757 33.7917 312.757 29.7183V27.7415H299.879C299.819 30.557 298.976 32.3241 297.291 33.0429C295.937 33.612 291.514 33.9115 284.021 33.9115C280.832 33.9115 278.755 33.8516 277.793 33.7917C274.964 33.5222 273.038 32.9231 272.045 31.9048C270.842 30.6768 270.21 27.6517 270.21 22.8295C270.21 20.2237 270.27 18.3367 270.33 17.1387C270.601 13.6343 272.256 11.5976 275.325 10.9986C276.469 10.7889 280.26 10.6691 286.609 10.6691C290.641 10.6691 292.747 10.6691 292.988 10.6991C296.178 10.9088 298.103 11.5976 298.765 12.7358C299.096 13.3348 299.337 14.3532 299.427 15.7909H312.156V14.2933C312.156 10.8488 311.704 8.18316 310.771 6.32617C309.598 3.95999 307.492 2.28271 304.452 1.38416C301.895 0.605421 294.914 0.246002 283.449 0.246002C274.392 0.246002 268.374 0.815081 265.365 1.92329C261.574 3.33101 259.107 5.9967 257.963 9.8904C257.331 12.0469 257 15.8807 257 21.3019C257 28.3106 257.512 33.3125 258.535 36.3077C260.009 40.5907 263.59 43.1067 269.277 43.8255C272.286 44.2149 276.619 44.3946 282.336 44.3946L282.366 44.4545Z" fill="white"/>
<path d="M401.403 24.1473C400.049 23.1889 397.642 22.5299 394.181 22.2005C396.92 21.7811 398.845 21.1222 399.959 20.2237C401.824 18.6961 402.787 16.0304 402.787 12.2266C402.787 7.31454 401.102 4.01988 397.762 2.31264C395.716 1.26433 392.346 0.755157 387.712 0.755157H348.143V44.3047H389.487C394.242 44.3047 397.582 43.7955 399.477 42.7772C402.817 40.9801 404.502 37.5356 404.502 32.384C404.502 28.3705 403.449 25.6449 401.403 24.1773V24.1473ZM361.203 10.4295H383.198C385.245 10.4295 386.599 10.5493 387.261 10.759C388.825 11.2681 389.608 12.4662 389.608 14.3232C389.608 15.9106 389.036 16.9589 387.862 17.558C387.14 17.9174 385.696 18.0971 383.529 18.0971H361.172V10.4295H361.203ZM389.036 34.241C388.374 34.4806 387.02 34.6004 385.004 34.6004H361.172V26.6932H384.643C386.9 26.6932 388.314 26.813 388.916 27.0227C390.42 27.5618 391.172 28.7898 391.172 30.7366C391.172 32.6835 390.48 33.7917 389.066 34.2709L389.036 34.241Z" fill="white"/>
<path d="M472.025 9.53096C470.671 4.79862 467.21 1.95323 461.644 0.934874C459.146 0.485601 452.376 0.27594 441.212 0.27594C435.134 0.27594 430.5 0.425698 427.311 0.755165C420.57 1.44405 416.328 4.04983 414.643 8.57252C413.951 10.4595 413.499 12.7358 413.319 15.3715C413.259 16.3899 413.228 18.6961 413.228 22.3502C413.228 27.7715 413.409 31.4255 413.77 33.4023C414.613 38.0149 416.689 41.0999 419.969 42.6274C422.286 43.7356 426.047 44.3946 431.252 44.6342C432.607 44.6941 436.488 44.724 442.837 44.724C450.179 44.724 455.475 44.6042 458.725 44.3347C466.037 43.7656 470.46 40.6207 471.995 34.8999C472.687 32.3241 473.018 28.2806 473.018 22.7995C473.018 20.3135 472.988 18.2169 472.927 16.5097C472.807 13.5744 472.536 11.2382 472.025 9.53096ZM459.477 28.4603C458.966 31.0661 457.732 32.6536 455.806 33.2825C454.061 33.8516 449.246 34.1212 441.272 34.1212C438.324 34.1212 435.796 34.0313 433.75 33.9115C430.169 33.642 428.063 32.384 427.401 30.0777C426.95 28.5202 426.739 25.9145 426.739 22.2304C426.739 19.415 426.829 17.4981 427.04 16.4797C427.491 14.1136 428.484 12.586 430.019 11.957C431.674 11.2682 436.037 10.9387 443.108 10.9387C447.411 10.9387 449.848 10.9387 450.36 10.9686C453.489 11.0884 455.565 11.388 456.558 11.8372C458.243 12.586 459.266 14.2034 459.627 16.7193C459.748 17.6179 459.808 19.3551 459.808 21.9609C459.808 25.3454 459.718 27.5318 459.507 28.4903L459.477 28.4603Z" fill="white"/>
<path d="M540.751 9.53096C539.397 4.79862 535.936 1.95323 530.369 0.934874C527.872 0.485601 521.102 0.27594 509.938 0.27594C503.86 0.27594 499.226 0.425698 496.037 0.755165C489.296 1.44405 485.054 4.04983 483.369 8.57252C482.677 10.4595 482.225 12.7358 482.045 15.3715C481.984 16.3899 481.954 18.6961 481.954 22.3502C481.954 27.7715 482.135 31.4255 482.496 33.4023C483.339 38.0149 485.415 41.0999 488.695 42.6274C491.012 43.7356 494.773 44.3946 499.978 44.6342C501.332 44.6941 505.214 44.724 511.563 44.724C518.905 44.724 524.201 44.6042 527.451 44.3347C534.763 43.7656 539.186 40.6207 540.721 34.8999C541.413 32.3241 541.744 28.2806 541.744 22.7995C541.744 20.3135 541.713 18.2169 541.653 16.5097C541.533 13.5744 541.262 11.2382 540.751 9.53096ZM528.233 28.4603C527.722 31.0661 526.488 32.6536 524.562 33.2825C522.817 33.8516 518.002 34.1212 510.029 34.1212C507.08 34.1212 504.552 34.0313 502.506 33.9115C498.925 33.642 496.819 32.384 496.157 30.0777C495.706 28.5202 495.495 25.9145 495.495 22.2304C495.495 19.415 495.585 17.4981 495.796 16.4797C496.247 14.1136 497.24 12.586 498.775 11.957C500.43 11.2682 504.793 10.9387 511.864 10.9387C516.167 10.9387 518.604 10.9387 519.116 10.9686C522.245 11.0884 524.321 11.388 525.314 11.8372C526.999 12.586 528.022 14.2034 528.384 16.7193C528.504 17.6179 528.564 19.3551 528.564 21.9609C528.564 25.3454 528.474 27.5318 528.263 28.4903L528.233 28.4603Z" fill="white"/>
<path d="M599.667 18.8758C597.982 18.187 595.093 17.7377 590.971 17.5879C587.451 17.4681 585.254 17.4082 584.442 17.4082H572.044C569.276 17.4082 567.471 17.2884 566.658 17.0788C564.793 16.5696 563.83 15.4314 563.83 13.6044C563.83 12.2566 564.281 11.2981 565.244 10.729C565.906 10.3397 567.019 10.1 568.554 9.98024C571.382 9.80053 575.384 9.68073 580.65 9.68073C584.381 9.68073 586.518 9.74063 587.029 9.83048C589.406 10.3097 590.61 11.6875 590.61 13.9338H603.579V12.4363C603.579 9.17155 602.977 6.68557 601.804 4.97833C600.51 3.09139 598.313 1.80347 595.244 1.11459C592.927 0.60541 587.21 0.335846 578.093 0.335846C571.744 0.335846 567.471 0.425701 565.334 0.635361C559.918 1.14454 556.247 2.19284 554.261 3.78027C551.884 5.69717 550.71 9.2015 550.71 14.2334C550.71 17.4082 551.102 19.8343 551.914 21.5715C552.997 23.8179 554.833 25.3454 557.481 26.1541C559.587 26.7831 563.589 27.1125 569.547 27.1125H581.613C585.465 27.1125 587.691 27.1724 588.353 27.2323C590.911 27.5618 592.205 28.8497 592.205 31.0362C592.205 32.8033 591.332 34.0014 589.587 34.5705C588.654 34.8999 586.999 35.0796 584.682 35.1096C578.905 35.2294 575.655 35.2593 574.873 35.2294L569.727 35.0796C568.073 35.0197 566.899 34.8999 566.147 34.6304C565.244 34.3308 564.612 33.7618 564.311 32.8932C564.131 32.4139 564.04 31.5453 563.98 30.2874H550.891C550.891 31.4854 550.861 32.2342 550.861 32.5937C550.861 35.7086 551.372 38.1047 552.396 39.782C553.599 41.6989 555.645 42.9868 558.504 43.5859C561.483 44.2148 567.742 44.5144 577.28 44.5144C589.798 44.5144 597.561 43.7057 600.57 42.0583C603.79 40.3211 605.384 36.5173 605.384 30.6768C605.384 24.357 603.489 20.4034 599.637 18.8159L599.667 18.8758Z" fill="white"/>
<path d="M611.703 0.72522V11.4778H631.172V44.2748H644.532V11.4778H664V0.72522H611.703Z" fill="white"/>
</g>
<defs>
<clipPath id="clip0_16_2208">
<rect width="664" height="44.4481" fill="white" transform="translate(0 0.27594)"/>
</clipPath>
</defs>
</svg>
