<svg width="202" height="87" viewBox="0 0 202 87" fill="none" xmlns="http://www.w3.org/2000/svg">
<path d="M198.73 59.3707H196.047V41.3019C196.047 39.1791 195.193 37.1398 193.684 35.6355L176.938 18.9373C175.429 17.433 173.384 16.5805 171.255 16.5805H163.863V8.55734C163.863 4.12789 160.259 0.53418 155.816 0.53418H95.607C91.1648 0.53418 87.5608 4.12789 87.5608 8.55734V16.5805L-69.659 17.316C-70.3965 17.316 -71 17.9177 -71 18.6531V21.3275C-71 22.063 -70.3965 22.6647 -69.659 22.6647L123.769 21.9293C124.506 21.9293 125.11 22.531 125.11 23.2665V25.9408C125.11 26.6763 124.506 27.278 123.769 27.278L-64.2948 28.0135C-65.0324 28.0135 -65.6359 28.6152 -65.6359 29.3507V32.0251C-65.6359 32.7605 -65.0324 33.3623 -64.2948 33.3623L118.405 32.6268C119.142 32.6268 119.746 33.2286 119.746 33.964V36.6384C119.746 37.3738 119.142 37.9756 118.405 37.9756L-69.659 38.711C-70.3965 38.711 -71 39.3128 -71 40.0482V42.7226C-71 43.4581 -70.3965 44.0598 -69.659 44.0598L113.04 43.3244C113.778 43.3244 114.381 43.9261 114.381 44.6616V47.3359C114.381 48.0714 113.778 48.6731 113.04 48.6731L87.5608 48.7485V70.0682C87.5608 78.9271 94.7688 86.1145 103.653 86.1145C112.538 86.1145 119.746 78.9271 119.746 70.0682H158.498C158.498 78.9271 165.706 86.1145 174.591 86.1145C183.475 86.1145 190.683 78.9271 190.683 70.0682H198.73C200.205 70.0682 201.412 68.8648 201.412 67.3938V62.0451C201.412 60.5742 200.205 59.3707 198.73 59.3707ZM103.653 78.0914C99.211 78.0914 95.607 74.4977 95.607 70.0682C95.607 65.6388 99.211 62.0451 103.653 62.0451C108.095 62.0451 111.699 65.6388 111.699 70.0682C111.699 74.4977 108.095 78.0914 103.653 78.0914ZM174.591 78.0914C170.149 78.0914 166.545 74.4977 166.545 70.0682C166.545 65.6388 170.149 62.0451 174.591 62.0451C179.033 62.0451 182.637 65.6388 182.637 70.0682C182.637 74.4977 179.033 78.0914 174.591 78.0914ZM188.001 43.3244H163.863V24.6037H171.255L188.001 41.3019V43.3244Z" fill="#0C2F4F"/>
</svg>
