<svg width="80" height="81" viewBox="0 0 80 81" fill="none" xmlns="http://www.w3.org/2000/svg">
<g clip-path="url(#clip0_18_2355)">
<path d="M2.45489 48.4819C2.4892 48.4819 2.52566 48.4819 2.56212 48.4776C3.38989 48.4197 4.01179 47.7013 3.95389 46.8757C3.90027 46.1165 3.8724 45.3424 3.8724 44.5725C3.8724 28.015 16.3597 14.3224 32.4112 12.4095L26.0742 18.7465C25.4888 19.3319 25.4888 20.2841 26.0742 20.8695C26.368 21.1633 26.7519 21.3091 27.1358 21.3091C27.5196 21.3091 27.9035 21.1633 28.1973 20.8695L37.3285 11.7383C37.3285 11.7383 37.3414 11.7233 37.3499 11.7147C37.3757 11.6868 37.4036 11.659 37.4271 11.6289C37.4379 11.6161 37.4464 11.6032 37.455 11.5925C37.4765 11.5668 37.4958 11.5389 37.5151 11.511C37.5215 11.5003 37.5279 11.4896 37.5344 11.4788C37.5537 11.4488 37.573 11.4166 37.5901 11.3845C37.5944 11.378 37.5966 11.3695 37.6008 11.3609C37.6202 11.3244 37.6373 11.288 37.6523 11.2515C37.6523 11.2472 37.6566 11.2408 37.6566 11.2365C37.6738 11.1958 37.6888 11.155 37.7016 11.1121C37.7016 11.1057 37.7038 11.1014 37.7059 11.095C37.7188 11.0542 37.7295 11.0113 37.7381 10.9706C37.7402 10.9577 37.7424 10.9449 37.7445 10.932C37.751 10.8955 37.7574 10.8612 37.7595 10.8248C37.7638 10.7754 37.7681 10.7261 37.7681 10.6746C37.7681 10.6232 37.766 10.5739 37.7595 10.5245C37.7553 10.4881 37.7488 10.4516 37.7424 10.4152C37.7424 10.4023 37.7402 10.3916 37.736 10.3787C37.7274 10.3358 37.7167 10.2929 37.7038 10.2522C37.7038 10.2479 37.7016 10.2415 37.6995 10.2372C37.6866 10.1943 37.6716 10.1514 37.6545 10.1107C37.6545 10.1064 37.6523 10.1021 37.6502 10.0999C37.633 10.0613 37.6159 10.0227 37.5966 9.98413C37.5944 9.97769 37.5923 9.9734 37.588 9.96697C37.5687 9.93051 37.5472 9.8962 37.5258 9.86403C37.5215 9.8576 37.5172 9.84902 37.5129 9.84259C37.4893 9.80828 37.4657 9.77611 37.44 9.74394C37.4357 9.73751 37.4314 9.73108 37.4271 9.72464C37.395 9.68604 37.3628 9.64959 37.3264 9.61313L28.1973 0.486202C27.6118 -0.0992419 26.6597 -0.0992419 26.0742 0.486202C25.4888 1.07165 25.4888 2.0238 26.0742 2.60924L32.8101 9.34507C14.9101 11.0885 0.870117 26.22 0.870117 44.5725C0.870117 45.411 0.90014 46.2559 0.958041 47.0859C1.0138 47.8772 1.67215 48.4819 2.45489 48.4819Z" fill="#0C2F4F"/>
<path d="M79.1225 58.8119C78.9295 58.0056 78.121 57.5059 77.3147 57.6989L68.0505 59.9034C71.6533 52.5522 72.5904 44.253 70.6711 36.1876C68.4816 26.9899 62.8416 19.1947 54.7912 14.2388C54.0792 13.7992 53.3436 13.381 52.6059 12.9971C51.8704 12.6133 50.9633 12.8963 50.5794 13.6319C50.1955 14.3675 50.4786 15.2746 51.2142 15.6584C51.8897 16.0123 52.5631 16.394 53.2171 16.7972C60.5856 21.3327 65.7473 28.4653 67.7503 36.8845C69.453 44.0407 68.6982 51.3941 65.6487 57.967L63.5728 49.2432C63.382 48.4369 62.5714 47.9372 61.765 48.1302C60.9587 48.3232 60.4612 49.1317 60.6521 49.938L63.6415 62.4983C63.6522 62.5455 63.6672 62.5926 63.6822 62.6398C63.6865 62.6484 63.6908 62.6591 63.6929 62.6677C63.7058 62.7041 63.7208 62.7406 63.7358 62.7771C63.7401 62.7856 63.7444 62.7921 63.7487 62.8006C63.7658 62.8371 63.783 62.8714 63.8044 62.9079C63.8066 62.9122 63.8109 62.9165 63.813 62.9229C63.8345 62.9593 63.8581 62.9958 63.8838 63.0322C63.8838 63.0344 63.8881 63.0365 63.8902 63.0408C63.916 63.0773 63.946 63.1137 63.976 63.1481C63.976 63.1481 63.9803 63.1523 63.9824 63.1545C64.0125 63.1888 64.0446 63.221 64.0789 63.2531C64.0854 63.2596 64.0939 63.266 64.1025 63.2724C64.1325 63.2982 64.1604 63.3239 64.1926 63.3475C64.2333 63.3775 64.2741 63.4054 64.317 63.4333C64.377 63.4697 64.4392 63.5019 64.5014 63.5298C64.6944 63.6156 64.8981 63.6563 65.1019 63.6563C65.1104 63.6563 65.119 63.6563 65.1297 63.6563C65.1812 63.6563 65.2327 63.652 65.2841 63.6456C65.3056 63.6434 65.327 63.637 65.3485 63.6348C65.3828 63.6284 65.4171 63.6241 65.4514 63.6177L78.0138 60.6283C78.8201 60.4353 79.3176 59.6268 79.1268 58.8205L79.1225 58.8119Z" fill="#0C2F4F"/>
<path d="M53.2495 72.2858C52.5976 72.6825 51.9221 73.0621 51.2401 73.4138C43.5521 77.3833 34.7791 78.1231 26.5357 75.494C19.5275 73.2594 13.6173 68.8182 9.5642 62.8136L18.1078 65.5371C18.8991 65.788 19.7419 65.3527 19.995 64.5635C20.2459 63.7744 19.8106 62.9294 19.0214 62.6764L6.71847 58.7541C6.67129 58.7391 6.62411 58.7262 6.57479 58.7155C6.56836 58.7155 6.56192 58.7155 6.55764 58.7134C6.51475 58.7048 6.47186 58.6984 6.42897 58.6919C6.42468 58.6919 6.42039 58.6919 6.4161 58.6919C6.37107 58.6876 6.32603 58.6833 6.28314 58.6833C6.28314 58.6833 6.281 58.6833 6.27885 58.6833C6.13517 58.6833 5.98935 58.7005 5.84781 58.7413C5.84138 58.7413 5.83495 58.7455 5.82851 58.7477C5.78777 58.7606 5.74917 58.7734 5.70842 58.7884C5.66124 58.8077 5.61621 58.827 5.57117 58.8506C5.52614 58.8742 5.48325 58.8999 5.4425 58.9257C5.41034 58.9471 5.38031 58.9686 5.35244 58.9922C5.34386 58.9986 5.33314 59.005 5.32456 59.0136C5.29025 59.0415 5.25808 59.0715 5.22591 59.1015C5.22162 59.1058 5.21948 59.108 5.21519 59.1101C5.18302 59.1401 5.153 59.1744 5.12512 59.2066C5.12298 59.2109 5.11869 59.213 5.11654 59.2173C5.08866 59.2495 5.06507 59.2817 5.04149 59.316C5.0372 59.3224 5.03291 59.3267 5.02862 59.3331C5.00717 59.3653 4.98573 59.3996 4.96643 59.4318C4.96214 59.4404 4.95571 59.4489 4.95142 59.4575C4.93212 59.4897 4.91711 59.524 4.90209 59.5604C4.8978 59.5712 4.89137 59.5797 4.88708 59.5905C4.86778 59.6355 4.85063 59.6827 4.83561 59.7299L0.906919 72.0328C0.656015 72.8219 1.09134 73.6669 1.88052 73.9199C2.03277 73.9692 2.18503 73.9907 2.33729 73.9907C2.97206 73.9907 3.56394 73.5832 3.76766 72.9442L6.66057 63.8709C11.0975 70.7504 17.7218 75.8371 25.6221 78.3547C29.1669 79.4849 32.7975 80.0446 36.4153 80.0446C41.9888 80.0446 47.5216 78.7128 52.6169 76.0794C53.3589 75.6955 54.0966 75.2817 54.8085 74.8485C55.5162 74.4174 55.7414 73.4932 55.3103 72.7855C54.8793 72.0778 53.955 71.8526 53.2473 72.2837L53.2495 72.2858Z" fill="#0C2F4F"/>
<path d="M30.4645 36.7108C29.879 36.1254 28.9269 36.1254 28.3414 36.7108C27.756 37.2963 27.756 38.2484 28.3414 38.8339L34.1144 44.6068L28.3414 50.3798C27.756 50.9652 27.756 51.9174 28.3414 52.5028C28.6352 52.7966 29.0191 52.9424 29.4029 52.9424C29.7868 52.9424 30.1707 52.7966 30.4645 52.5028L36.2374 46.7298L42.0104 52.5028C42.3042 52.7966 42.688 52.9424 43.0719 52.9424C43.4558 52.9424 43.8396 52.7966 44.1334 52.5028C44.7189 51.9174 44.7189 50.9652 44.1334 50.3798L38.3605 44.6068L44.1334 38.8339C44.7189 38.2484 44.7189 37.2963 44.1334 36.7108C43.548 36.1254 42.5958 36.1254 42.0104 36.7108L36.2374 42.4838L30.4645 36.7108Z" fill="#0C2F4F"/>
</g>
<defs>
<clipPath id="clip0_18_2355">
<rect width="78.3273" height="80" fill="white" transform="translate(0.835938 0.0466309)"/>
</clipPath>
</defs>
</svg>
