<svg width="100" height="81" viewBox="0 0 100 81" fill="none" xmlns="http://www.w3.org/2000/svg">
<g clip-path="url(#clip0_18_2338)">
<path d="M69.7849 80.0466C68.9027 80.0466 68.1892 79.336 68.1892 78.4573C68.1892 76.8794 68.1117 75.3787 67.9658 73.9461C67.674 74.2548 67.2614 74.4478 66.8032 74.4478H31.4774C30.5952 74.4478 29.8817 73.7372 29.8817 72.8585C29.8817 71.9799 30.5952 71.2692 31.4774 71.2692H66.8032C67.1087 71.2692 67.3959 71.3555 67.6398 71.5054C67.1839 68.7786 66.4613 66.313 65.5222 64.0539C65.4674 64.0584 65.4127 64.063 65.358 64.063H34.9788C34.0966 64.063 33.3831 63.3523 33.3831 62.4737C33.3831 61.595 34.0966 60.8844 34.9788 60.8844H63.9926C62.5246 58.2212 60.742 55.8577 58.7542 53.6804H44.9836C44.1014 53.6759 43.3879 52.9652 43.3879 52.0866C43.3879 51.2079 44.1014 50.4973 44.9836 50.4973H55.5925C53.8966 48.9194 52.1117 47.4141 50.2881 45.9338C49.6042 45.3775 49.5039 44.3763 50.0601 43.6974C50.6186 43.0163 51.6239 42.9164 52.3055 43.4704C61.957 51.3169 71.3783 60.4825 71.3783 78.4573C71.3783 79.336 70.6648 80.0466 69.7826 80.0466H69.7849ZM21.5957 80.0466C20.7135 80.0466 20 79.336 20 78.4573C20 58.3643 32.5009 48.5561 44.5893 39.0726C49.0435 35.5785 53.6504 31.964 57.4959 27.9C58.1 27.262 59.1098 27.2325 59.7527 27.8341C60.3932 28.4358 60.4228 29.4416 59.8188 30.0818C55.8114 34.3161 51.111 38.0033 46.5656 41.5701C34.5434 50.9991 23.1913 59.9059 23.1913 78.4573C23.1913 79.336 22.4778 80.0466 21.5957 80.0466ZM80.1681 39.5517C69.2332 39.5517 60.3362 30.6903 60.3362 19.7992C60.3362 8.90802 69.2332 0.0466309 80.1681 0.0466309C91.103 0.0466309 100 8.90802 100 19.7992C100 30.6903 91.103 39.5517 80.1681 39.5517ZM80.1681 3.2252C70.993 3.2252 63.5276 10.6608 63.5276 19.7992C63.5276 28.9375 70.993 36.3731 80.1681 36.3731C89.3432 36.3731 96.8087 28.9375 96.8087 19.7992C96.8087 10.6608 89.3432 3.2252 80.1681 3.2252ZM39.7703 37.0815C39.4102 37.0815 39.0477 36.9612 38.7491 36.7114C34.6095 33.2672 29.378 28.5379 25.6578 22.4873C21.851 16.3027 20 9.48016 20 1.63591C20 0.757268 20.7135 0.0466309 21.5957 0.0466309C22.4778 0.0466309 23.1913 0.757268 23.1913 1.63591C23.1913 3.2252 23.2711 4.74637 23.4261 6.20397H59.666C60.5482 6.20397 61.2617 6.91461 61.2617 7.79325C61.2617 8.6719 60.5482 9.38254 59.666 9.38254H23.9003C24.3995 11.9663 25.1563 14.3547 26.141 16.5888H56.2103C57.0925 16.5888 57.806 17.2994 57.806 18.1781C57.806 19.0567 57.0925 19.7674 56.2103 19.7674H27.7458C29.2116 22.3307 30.9964 24.7078 33.0503 26.9804C33.0913 26.9782 33.1324 26.9759 33.1757 26.9759H46.6522C47.5344 26.9759 48.2479 27.6865 48.2479 28.5652C48.2479 29.4438 47.5344 30.1545 46.6522 30.1545H36.1482C37.6025 31.544 39.1571 32.9107 40.7938 34.273C41.4709 34.8361 41.5598 35.8373 40.9944 36.5116C40.6799 36.8885 40.2262 37.0815 39.7681 37.0815H39.7703ZM87.433 28.6242C87.0249 28.6242 86.6169 28.4698 86.3046 28.1588L80.1681 22.0469L74.0316 28.1588C73.4093 28.7786 72.3972 28.7786 71.7749 28.1588C71.1526 27.539 71.1526 26.5309 71.7749 25.9111L77.9114 19.7992L71.7749 13.6872C71.1526 13.0674 71.1526 12.0593 71.7749 11.4395C72.3972 10.8197 73.4093 10.8197 74.0316 11.4395L80.1681 17.5515L86.3046 11.4395C86.9269 10.8197 87.939 10.8197 88.5613 11.4395C89.1836 12.0593 89.1836 13.0674 88.5613 13.6872L82.4248 19.7992L88.5613 25.9111C89.1836 26.5309 89.1836 27.539 88.5613 28.1588C88.249 28.4698 87.841 28.6242 87.433 28.6242Z" fill="#0C2F4F"/>
</g>
<defs>
<clipPath id="clip0_18_2338">
<rect width="100" height="80" fill="white" transform="translate(0 0.0466309)"/>
</clipPath>
</defs>
</svg>
